%TF.GenerationSoftware,KiCad,Pcbnew,9.0.5*%
%TF.CreationDate,2025-10-15T11:44:02-05:00*%
%TF.ProjectId,PS-LVBatteryPCB,50532d4c-5642-4617-9474-657279504342,rev?*%
%TF.SameCoordinates,Original*%
%TF.FileFunction,Copper,L1,Top*%
%TF.FilePolarity,Positive*%
%FSLAX46Y46*%
G04 Gerber Fmt 4.6, Leading zero omitted, Abs format (unit mm)*
G04 Created by KiCad (PCBNEW 9.0.5) date 2025-10-15 11:44:02*
%MOMM*%
%LPD*%
G01*
G04 APERTURE LIST*
G04 Aperture macros list*
%AMRoundRect*
0 Rectangle with rounded corners*
0 $1 Rounding radius*
0 $2 $3 $4 $5 $6 $7 $8 $9 X,Y pos of 4 corners*
0 Add a 4 corners polygon primitive as box body*
4,1,4,$2,$3,$4,$5,$6,$7,$8,$9,$2,$3,0*
0 Add four circle primitives for the rounded corners*
1,1,$1+$1,$2,$3*
1,1,$1+$1,$4,$5*
1,1,$1+$1,$6,$7*
1,1,$1+$1,$8,$9*
0 Add four rect primitives between the rounded corners*
20,1,$1+$1,$2,$3,$4,$5,0*
20,1,$1+$1,$4,$5,$6,$7,0*
20,1,$1+$1,$6,$7,$8,$9,0*
20,1,$1+$1,$8,$9,$2,$3,0*%
%AMFreePoly0*
4,1,22,0.945671,0.830970,1.026777,0.776777,1.080970,0.695671,1.100000,0.600000,1.100000,-0.600000,1.080970,-0.695671,1.026777,-0.776777,0.945671,-0.830970,0.850000,-0.850000,-0.596447,-0.850000,-0.692118,-0.830970,-0.773224,-0.776777,-1.026777,-0.523224,-1.080970,-0.442118,-1.100000,-0.346447,-1.100000,0.600000,-1.080970,0.695671,-1.026777,0.776777,-0.945671,0.830970,-0.850000,0.850000,
0.850000,0.850000,0.945671,0.830970,0.945671,0.830970,$1*%
G04 Aperture macros list end*
%TA.AperFunction,ComponentPad*%
%ADD10FreePoly0,270.000000*%
%TD*%
%TA.AperFunction,ComponentPad*%
%ADD11O,1.700000X2.200000*%
%TD*%
%TA.AperFunction,ComponentPad*%
%ADD12R,3.000000X3.000000*%
%TD*%
%TA.AperFunction,ComponentPad*%
%ADD13C,3.000000*%
%TD*%
%TA.AperFunction,ComponentPad*%
%ADD14RoundRect,0.250000X0.600000X-0.850000X0.600000X0.850000X-0.600000X0.850000X-0.600000X-0.850000X0*%
%TD*%
%TA.AperFunction,ComponentPad*%
%ADD15C,2.850000*%
%TD*%
%TA.AperFunction,ComponentPad*%
%ADD16RoundRect,0.250000X-0.850000X-0.600000X0.850000X-0.600000X0.850000X0.600000X-0.850000X0.600000X0*%
%TD*%
%TA.AperFunction,ComponentPad*%
%ADD17O,2.200000X1.700000*%
%TD*%
%TA.AperFunction,ComponentPad*%
%ADD18C,2.780000*%
%TD*%
%TA.AperFunction,Conductor*%
%ADD19C,0.200000*%
%TD*%
G04 APERTURE END LIST*
D10*
%TO.P,J3,1,Pin_1*%
%TO.N,Net-(J1-Pin_2)*%
X199300000Y-76950000D03*
D11*
%TO.P,J3,2,Pin_2*%
%TO.N,Net-(J2-Pin_2)*%
X196800000Y-76950000D03*
%TO.P,J3,3,Pin_3*%
%TO.N,Net-(J1-Pin_1)*%
X194300000Y-76950000D03*
%TD*%
D12*
%TO.P,J6,1,Pin_1*%
%TO.N,/SUPP_FUSE+*%
X188950000Y-76050000D03*
D13*
%TO.P,J6,2,Pin_2*%
%TO.N,/SUPP_GND*%
X188950000Y-71050000D03*
%TD*%
D14*
%TO.P,J2,1,Pin_1*%
%TO.N,Net-(J1-Pin_1)*%
X178550000Y-85050000D03*
D11*
%TO.P,J2,2,Pin_2*%
%TO.N,Net-(J2-Pin_2)*%
X181050000Y-85050000D03*
%TD*%
D15*
%TO.P,J5,1,Pin_1*%
%TO.N,/SUPP_GND*%
X167595000Y-84950000D03*
X174605000Y-84950000D03*
X167595000Y-79950000D03*
X174605000Y-79950000D03*
%TD*%
%TO.P,J4,1,Pin_1*%
%TO.N,/SUPP+*%
X213095000Y-84950000D03*
X220105000Y-84950000D03*
X213095000Y-79950000D03*
X220105000Y-79950000D03*
%TD*%
D16*
%TO.P,J1,1,Pin_1*%
%TO.N,Net-(J1-Pin_1)*%
X205700000Y-73500000D03*
D17*
%TO.P,J1,2,Pin_2*%
%TO.N,Net-(J1-Pin_2)*%
X205700000Y-76000000D03*
%TD*%
D18*
%TO.P,F1,1*%
%TO.N,/SUPP+*%
X198650000Y-84550000D03*
X198650000Y-81150000D03*
%TO.P,F1,2*%
%TO.N,/SUPP_FUSE+*%
X188730000Y-84550000D03*
X188730000Y-81150000D03*
%TD*%
D19*
%TO.N,Net-(J1-Pin_1)*%
X205700000Y-73500000D02*
X204960000Y-74240000D01*
X204960000Y-74240000D02*
X197010000Y-74240000D01*
X197010000Y-74240000D02*
X194300000Y-76950000D01*
%TO.N,Net-(J1-Pin_2)*%
X204750000Y-76950000D02*
X205700000Y-76000000D01*
X199300000Y-76950000D02*
X204750000Y-76950000D01*
%TD*%
%TA.AperFunction,Conductor*%
%TO.N,/SUPP+*%
G36*
X216292539Y-71520185D02*
G01*
X216338294Y-71572989D01*
X216349500Y-71624500D01*
X216349500Y-78239562D01*
X216355284Y-78261147D01*
X216369979Y-78315990D01*
X216369982Y-78315995D01*
X216409535Y-78384504D01*
X216409539Y-78384509D01*
X216409540Y-78384511D01*
X216465489Y-78440460D01*
X216465491Y-78440461D01*
X216465495Y-78440464D01*
X216514922Y-78469000D01*
X216534011Y-78480021D01*
X216610438Y-78500500D01*
X216689562Y-78500500D01*
X221473876Y-78500500D01*
X221540915Y-78520185D01*
X221586670Y-78572989D01*
X221591807Y-78586182D01*
X221644778Y-78749214D01*
X221644780Y-78749217D01*
X221737713Y-78931609D01*
X221858035Y-79097217D01*
X222002782Y-79241964D01*
X222168390Y-79362286D01*
X222350782Y-79455219D01*
X222545466Y-79518476D01*
X222747648Y-79550499D01*
X222810438Y-79550499D01*
X224460437Y-79550499D01*
X225202405Y-79550499D01*
X225246518Y-79550499D01*
X225253470Y-79550694D01*
X225293114Y-79552920D01*
X225567696Y-79568340D01*
X225581495Y-79569894D01*
X225888331Y-79622028D01*
X225901888Y-79625122D01*
X226200955Y-79711282D01*
X226214079Y-79715875D01*
X226501610Y-79834973D01*
X226514140Y-79841007D01*
X226786532Y-79991554D01*
X226798305Y-79998951D01*
X227052138Y-80179054D01*
X227063002Y-80187719D01*
X227134945Y-80252011D01*
X227295063Y-80395103D01*
X227304895Y-80404935D01*
X227460800Y-80579391D01*
X227496362Y-80619185D01*
X227512276Y-80636992D01*
X227520947Y-80647864D01*
X227701047Y-80901693D01*
X227708444Y-80913466D01*
X227858991Y-81185858D01*
X227865025Y-81198388D01*
X227984123Y-81485919D01*
X227988716Y-81499043D01*
X228074876Y-81798109D01*
X228077970Y-81811666D01*
X228130102Y-82118492D01*
X228131659Y-82132310D01*
X228149109Y-82443028D01*
X228149109Y-82456934D01*
X228131658Y-82767688D01*
X228130101Y-82781506D01*
X228077969Y-83088331D01*
X228074875Y-83101888D01*
X227988715Y-83400954D01*
X227984122Y-83414078D01*
X227865024Y-83701609D01*
X227858990Y-83714139D01*
X227708443Y-83986531D01*
X227701046Y-83998304D01*
X227520946Y-84252133D01*
X227512275Y-84263005D01*
X227304894Y-84495062D01*
X227295062Y-84504894D01*
X227063005Y-84712275D01*
X227052133Y-84720946D01*
X226798304Y-84901046D01*
X226786531Y-84908443D01*
X226514139Y-85058990D01*
X226501609Y-85065024D01*
X226214078Y-85184122D01*
X226200954Y-85188715D01*
X225901888Y-85274875D01*
X225888331Y-85277969D01*
X225581506Y-85330101D01*
X225567688Y-85331658D01*
X225253471Y-85349304D01*
X225246518Y-85349499D01*
X224460437Y-85349499D01*
X224460436Y-85349499D01*
X222810438Y-85349500D01*
X222747648Y-85349500D01*
X222723329Y-85353351D01*
X222545465Y-85381522D01*
X222350776Y-85444781D01*
X222168386Y-85537715D01*
X222002786Y-85658028D01*
X221858028Y-85802786D01*
X221737715Y-85968386D01*
X221644781Y-86150778D01*
X221581522Y-86345468D01*
X221581521Y-86345474D01*
X221580851Y-86349704D01*
X221550919Y-86412838D01*
X221491606Y-86449766D01*
X221458316Y-86454301D01*
X220923630Y-86454030D01*
X220923220Y-86454029D01*
X194264823Y-86352344D01*
X194197859Y-86332404D01*
X194152306Y-86279426D01*
X194141297Y-86228519D01*
X194135994Y-82328456D01*
X223395500Y-82328456D01*
X223395500Y-82571543D01*
X223395501Y-82571559D01*
X223427230Y-82812569D01*
X223490149Y-83047386D01*
X223583175Y-83271972D01*
X223583182Y-83271987D01*
X223704730Y-83482516D01*
X223852722Y-83675380D01*
X223852730Y-83675389D01*
X224024611Y-83847270D01*
X224024619Y-83847277D01*
X224217483Y-83995269D01*
X224428012Y-84116817D01*
X224428027Y-84116824D01*
X224521315Y-84155465D01*
X224652612Y-84209850D01*
X224887429Y-84272769D01*
X225128450Y-84304500D01*
X225128457Y-84304500D01*
X225371543Y-84304500D01*
X225371550Y-84304500D01*
X225612571Y-84272769D01*
X225847388Y-84209850D01*
X226071984Y-84116819D01*
X226282516Y-83995269D01*
X226475380Y-83847278D01*
X226475384Y-83847273D01*
X226475389Y-83847270D01*
X226647270Y-83675389D01*
X226647273Y-83675384D01*
X226647278Y-83675380D01*
X226795269Y-83482516D01*
X226916819Y-83271984D01*
X227009850Y-83047388D01*
X227072769Y-82812571D01*
X227104500Y-82571550D01*
X227104500Y-82328450D01*
X227072769Y-82087429D01*
X227009850Y-81852612D01*
X226916819Y-81628016D01*
X226916817Y-81628012D01*
X226795269Y-81417483D01*
X226647277Y-81224619D01*
X226647270Y-81224611D01*
X226475389Y-81052730D01*
X226475380Y-81052722D01*
X226282516Y-80904730D01*
X226071987Y-80783182D01*
X226071972Y-80783175D01*
X225847386Y-80690149D01*
X225612569Y-80627230D01*
X225371559Y-80595501D01*
X225371556Y-80595500D01*
X225371550Y-80595500D01*
X225128450Y-80595500D01*
X225128444Y-80595500D01*
X225128440Y-80595501D01*
X224887430Y-80627230D01*
X224652613Y-80690149D01*
X224428027Y-80783175D01*
X224428012Y-80783182D01*
X224217483Y-80904730D01*
X224024619Y-81052722D01*
X223852722Y-81224619D01*
X223704730Y-81417483D01*
X223583182Y-81628012D01*
X223583175Y-81628027D01*
X223490149Y-81852613D01*
X223427230Y-82087430D01*
X223395501Y-82328440D01*
X223395500Y-82328456D01*
X194135994Y-82328456D01*
X194131025Y-78674667D01*
X194150619Y-78607602D01*
X194203360Y-78561776D01*
X194255025Y-78550500D01*
X194406286Y-78550500D01*
X194406287Y-78550500D01*
X194616243Y-78517246D01*
X194818412Y-78451557D01*
X195007816Y-78355051D01*
X195046575Y-78326891D01*
X195179786Y-78230109D01*
X195179788Y-78230106D01*
X195179792Y-78230104D01*
X195330104Y-78079792D01*
X195449683Y-77915204D01*
X195505011Y-77872540D01*
X195574624Y-77866561D01*
X195636420Y-77899166D01*
X195650313Y-77915199D01*
X195731786Y-78027338D01*
X195769896Y-78079792D01*
X195920213Y-78230109D01*
X196092179Y-78355048D01*
X196092181Y-78355049D01*
X196092184Y-78355051D01*
X196281588Y-78451557D01*
X196483757Y-78517246D01*
X196693713Y-78550500D01*
X196693714Y-78550500D01*
X196906286Y-78550500D01*
X196906287Y-78550500D01*
X197116243Y-78517246D01*
X197318412Y-78451557D01*
X197507816Y-78355051D01*
X197637065Y-78261147D01*
X197679784Y-78230110D01*
X197679784Y-78230109D01*
X197679792Y-78230104D01*
X197819025Y-78090870D01*
X197880344Y-78057388D01*
X197950036Y-78062372D01*
X198005970Y-78104243D01*
X198018559Y-78125035D01*
X198021838Y-78131888D01*
X198044103Y-78178424D01*
X198044104Y-78178426D01*
X198044105Y-78178427D01*
X198099375Y-78261145D01*
X198099377Y-78261148D01*
X198099380Y-78261152D01*
X198131809Y-78304473D01*
X198238848Y-78400620D01*
X198298470Y-78440458D01*
X198321576Y-78455897D01*
X198368112Y-78483508D01*
X198368113Y-78483509D01*
X198503789Y-78531374D01*
X198503791Y-78531374D01*
X198503796Y-78531376D01*
X198601380Y-78550787D01*
X198700000Y-78560500D01*
X198700002Y-78560500D01*
X199899998Y-78560500D01*
X199900000Y-78560500D01*
X199998620Y-78550787D01*
X200096204Y-78531376D01*
X200148634Y-78517994D01*
X200278424Y-78455897D01*
X200361152Y-78400620D01*
X200404473Y-78368191D01*
X200500620Y-78261152D01*
X200555897Y-78178424D01*
X200583508Y-78131888D01*
X200596546Y-78094933D01*
X200631374Y-77996210D01*
X200631374Y-77996209D01*
X200631376Y-77996204D01*
X200650787Y-77898620D01*
X200660500Y-77800000D01*
X200660500Y-77674500D01*
X200680185Y-77607461D01*
X200732989Y-77561706D01*
X200784500Y-77550500D01*
X204663331Y-77550500D01*
X204663347Y-77550501D01*
X204670943Y-77550501D01*
X204829054Y-77550501D01*
X204829057Y-77550501D01*
X204981785Y-77509577D01*
X205033401Y-77479776D01*
X205118716Y-77430520D01*
X205180199Y-77369035D01*
X205187353Y-77363692D01*
X205212066Y-77354502D01*
X205235205Y-77341868D01*
X205246948Y-77341532D01*
X205252842Y-77339341D01*
X205261027Y-77341130D01*
X205280962Y-77340561D01*
X205343713Y-77350500D01*
X205343714Y-77350500D01*
X206056286Y-77350500D01*
X206056287Y-77350500D01*
X206266243Y-77317246D01*
X206468412Y-77251557D01*
X206657816Y-77155051D01*
X206764828Y-77077303D01*
X206829786Y-77030109D01*
X206829788Y-77030106D01*
X206829792Y-77030104D01*
X206980104Y-76879792D01*
X206980106Y-76879788D01*
X206980109Y-76879786D01*
X207105048Y-76707820D01*
X207105047Y-76707820D01*
X207105051Y-76707816D01*
X207201557Y-76518412D01*
X207267246Y-76316243D01*
X207300500Y-76106287D01*
X207300500Y-75913074D01*
X211775500Y-75913074D01*
X211775500Y-76086926D01*
X211778567Y-76106287D01*
X211802697Y-76258639D01*
X211802697Y-76258642D01*
X211856418Y-76423978D01*
X211856420Y-76423981D01*
X211935347Y-76578884D01*
X212037535Y-76719533D01*
X212160467Y-76842465D01*
X212301116Y-76944653D01*
X212456019Y-77023580D01*
X212456021Y-77023581D01*
X212621358Y-77077302D01*
X212621359Y-77077302D01*
X212621362Y-77077303D01*
X212793074Y-77104500D01*
X212793075Y-77104500D01*
X212966925Y-77104500D01*
X212966926Y-77104500D01*
X213138638Y-77077303D01*
X213138641Y-77077302D01*
X213138642Y-77077302D01*
X213303978Y-77023581D01*
X213303978Y-77023580D01*
X213303981Y-77023580D01*
X213458884Y-76944653D01*
X213599533Y-76842465D01*
X213722465Y-76719533D01*
X213824653Y-76578884D01*
X213903580Y-76423981D01*
X213927780Y-76349500D01*
X213957302Y-76258642D01*
X213957302Y-76258641D01*
X213957303Y-76258638D01*
X213984500Y-76086926D01*
X213984500Y-75913074D01*
X213957303Y-75741362D01*
X213957302Y-75741358D01*
X213957302Y-75741357D01*
X213903581Y-75576021D01*
X213846209Y-75463422D01*
X213824653Y-75421116D01*
X213722465Y-75280467D01*
X213599533Y-75157535D01*
X213458884Y-75055347D01*
X213415791Y-75033390D01*
X213303978Y-74976418D01*
X213138641Y-74922697D01*
X212991126Y-74899333D01*
X212966926Y-74895500D01*
X212793074Y-74895500D01*
X212768874Y-74899333D01*
X212621360Y-74922697D01*
X212621357Y-74922697D01*
X212456021Y-74976418D01*
X212301115Y-75055347D01*
X212220869Y-75113649D01*
X212160467Y-75157535D01*
X212160465Y-75157537D01*
X212160464Y-75157537D01*
X212037537Y-75280464D01*
X212037537Y-75280465D01*
X212037535Y-75280467D01*
X212029026Y-75292179D01*
X211935347Y-75421115D01*
X211856418Y-75576021D01*
X211802697Y-75741357D01*
X211802697Y-75741360D01*
X211785273Y-75851371D01*
X211775500Y-75913074D01*
X207300500Y-75913074D01*
X207300500Y-75893713D01*
X207267246Y-75683757D01*
X207201557Y-75481588D01*
X207105051Y-75292184D01*
X207105049Y-75292181D01*
X207105048Y-75292179D01*
X206980109Y-75120213D01*
X206841294Y-74981398D01*
X206807809Y-74920075D01*
X206812793Y-74850383D01*
X206854665Y-74794450D01*
X206863879Y-74788178D01*
X206869331Y-74784814D01*
X206869334Y-74784814D01*
X207018656Y-74692712D01*
X207142712Y-74568656D01*
X207234814Y-74419334D01*
X207289999Y-74252797D01*
X207300500Y-74150009D01*
X207300499Y-73413074D01*
X211775500Y-73413074D01*
X211775500Y-73586925D01*
X211802697Y-73758639D01*
X211802697Y-73758642D01*
X211856418Y-73923978D01*
X211873016Y-73956553D01*
X211935347Y-74078884D01*
X212037535Y-74219533D01*
X212160467Y-74342465D01*
X212301116Y-74444653D01*
X212456019Y-74523580D01*
X212456021Y-74523581D01*
X212621358Y-74577302D01*
X212621359Y-74577302D01*
X212621362Y-74577303D01*
X212793074Y-74604500D01*
X212793075Y-74604500D01*
X212966925Y-74604500D01*
X212966926Y-74604500D01*
X213138638Y-74577303D01*
X213138641Y-74577302D01*
X213138642Y-74577302D01*
X213303978Y-74523581D01*
X213303978Y-74523580D01*
X213303981Y-74523580D01*
X213458884Y-74444653D01*
X213599533Y-74342465D01*
X213722465Y-74219533D01*
X213824653Y-74078884D01*
X213903580Y-73923981D01*
X213957029Y-73759481D01*
X213957302Y-73758642D01*
X213957302Y-73758641D01*
X213957303Y-73758638D01*
X213984500Y-73586926D01*
X213984500Y-73413074D01*
X213957303Y-73241362D01*
X213957302Y-73241358D01*
X213957302Y-73241357D01*
X213903581Y-73076021D01*
X213903580Y-73076019D01*
X213824653Y-72921116D01*
X213722465Y-72780467D01*
X213599533Y-72657535D01*
X213458884Y-72555347D01*
X213438577Y-72545000D01*
X213303978Y-72476418D01*
X213138641Y-72422697D01*
X213005736Y-72401647D01*
X212966926Y-72395500D01*
X212793074Y-72395500D01*
X212735836Y-72404565D01*
X212621360Y-72422697D01*
X212621357Y-72422697D01*
X212456021Y-72476418D01*
X212301115Y-72555347D01*
X212220869Y-72613649D01*
X212160467Y-72657535D01*
X212160465Y-72657537D01*
X212160464Y-72657537D01*
X212037537Y-72780464D01*
X212037537Y-72780465D01*
X212037535Y-72780467D01*
X211993649Y-72840869D01*
X211935347Y-72921115D01*
X211856418Y-73076021D01*
X211802697Y-73241357D01*
X211802697Y-73241360D01*
X211775500Y-73413074D01*
X207300499Y-73413074D01*
X207300499Y-72849992D01*
X207289999Y-72747203D01*
X207234814Y-72580666D01*
X207142712Y-72431344D01*
X207114793Y-72403425D01*
X207081308Y-72342102D01*
X207083528Y-72311049D01*
X207082115Y-72311037D01*
X207082570Y-72260000D01*
X207088245Y-71623393D01*
X207108526Y-71556533D01*
X207161736Y-71511251D01*
X207212240Y-71500500D01*
X216225500Y-71500500D01*
X216292539Y-71520185D01*
G37*
%TD.AperFunction*%
%TD*%
%TA.AperFunction,Conductor*%
%TO.N,/SUPP_FUSE+*%
G36*
X193553041Y-67164040D02*
G01*
X193598804Y-67216837D01*
X193610018Y-67268197D01*
X193621156Y-75460548D01*
X193601562Y-75527615D01*
X193570041Y-75561035D01*
X193420214Y-75669890D01*
X193420209Y-75669894D01*
X193269890Y-75820213D01*
X193144951Y-75992179D01*
X193048444Y-76181585D01*
X192982753Y-76383760D01*
X192949500Y-76593713D01*
X192949500Y-77306286D01*
X192971631Y-77446019D01*
X192982754Y-77516243D01*
X193013660Y-77611362D01*
X193048444Y-77718414D01*
X193144951Y-77907820D01*
X193269890Y-78079786D01*
X193420209Y-78230105D01*
X193420214Y-78230109D01*
X193574094Y-78341909D01*
X193616760Y-78397238D01*
X193625209Y-78442058D01*
X193636075Y-86433455D01*
X193616481Y-86500522D01*
X193563740Y-86546348D01*
X193512895Y-86557621D01*
X188309559Y-86592020D01*
X188272735Y-86586681D01*
X188126857Y-86542418D01*
X187789563Y-86475298D01*
X187789547Y-86475295D01*
X187447284Y-86441554D01*
X187275335Y-86441540D01*
X187275334Y-86441540D01*
X187227739Y-86441535D01*
X187227736Y-86441535D01*
X187227733Y-86441534D01*
X182118197Y-86441048D01*
X182051160Y-86421357D01*
X182005410Y-86368549D01*
X181995473Y-86299389D01*
X182024504Y-86235836D01*
X182030515Y-86229380D01*
X182080104Y-86179792D01*
X182080106Y-86179788D01*
X182080109Y-86179786D01*
X182205048Y-86007820D01*
X182205047Y-86007820D01*
X182205051Y-86007816D01*
X182301557Y-85818412D01*
X182367246Y-85616243D01*
X182400500Y-85406287D01*
X182400500Y-84693713D01*
X182367246Y-84483757D01*
X182301557Y-84281588D01*
X182205051Y-84092184D01*
X182205049Y-84092181D01*
X182205048Y-84092179D01*
X182080109Y-83920213D01*
X181929786Y-83769890D01*
X181757820Y-83644951D01*
X181568414Y-83548444D01*
X181568413Y-83548443D01*
X181568412Y-83548443D01*
X181366243Y-83482754D01*
X181366241Y-83482753D01*
X181366240Y-83482753D01*
X181204957Y-83457208D01*
X181156287Y-83449500D01*
X180943713Y-83449500D01*
X180895042Y-83457208D01*
X180733760Y-83482753D01*
X180531585Y-83548444D01*
X180342179Y-83644951D01*
X180170215Y-83769889D01*
X180031398Y-83908706D01*
X179970075Y-83942190D01*
X179900383Y-83937206D01*
X179844450Y-83895334D01*
X179838178Y-83886120D01*
X179742712Y-83731344D01*
X179618657Y-83607289D01*
X179618656Y-83607288D01*
X179469334Y-83515186D01*
X179302797Y-83460001D01*
X179302795Y-83460000D01*
X179200010Y-83449500D01*
X177899998Y-83449500D01*
X177899981Y-83449501D01*
X177797203Y-83460000D01*
X177797200Y-83460001D01*
X177630668Y-83515185D01*
X177630663Y-83515187D01*
X177481342Y-83607289D01*
X177357289Y-83731342D01*
X177265187Y-83880663D01*
X177265185Y-83880668D01*
X177260325Y-83895334D01*
X177210001Y-84047203D01*
X177210001Y-84047204D01*
X177210000Y-84047204D01*
X177199500Y-84149983D01*
X177199500Y-85950001D01*
X177199501Y-85950018D01*
X177210000Y-86052796D01*
X177210001Y-86052799D01*
X177245783Y-86160781D01*
X177265186Y-86219334D01*
X177271020Y-86228792D01*
X177285015Y-86251483D01*
X177303454Y-86318876D01*
X177282530Y-86385539D01*
X177228887Y-86430308D01*
X177179463Y-86440578D01*
X176136939Y-86440478D01*
X176069902Y-86420787D01*
X176024152Y-86367979D01*
X176014215Y-86298819D01*
X176043246Y-86235266D01*
X176049260Y-86228806D01*
X176055773Y-86222294D01*
X176185834Y-86052797D01*
X176209431Y-86022045D01*
X176209433Y-86022041D01*
X176335627Y-85803464D01*
X176335633Y-85803454D01*
X176432226Y-85570260D01*
X176497554Y-85326452D01*
X176530500Y-85076204D01*
X176530500Y-84823796D01*
X176497554Y-84573548D01*
X176432226Y-84329740D01*
X176389154Y-84225758D01*
X176335636Y-84096552D01*
X176335627Y-84096535D01*
X176209433Y-83877958D01*
X176209431Y-83877954D01*
X176055772Y-83677705D01*
X176055765Y-83677697D01*
X175877303Y-83499235D01*
X175877294Y-83499227D01*
X175677045Y-83345568D01*
X175677041Y-83345566D01*
X175458464Y-83219372D01*
X175458447Y-83219363D01*
X175225258Y-83122773D01*
X175070690Y-83081357D01*
X174981452Y-83057446D01*
X174950171Y-83053327D01*
X174731211Y-83024500D01*
X174731204Y-83024500D01*
X174478796Y-83024500D01*
X174478788Y-83024500D01*
X174228548Y-83057446D01*
X173984741Y-83122773D01*
X173751552Y-83219363D01*
X173751535Y-83219372D01*
X173532958Y-83345566D01*
X173532954Y-83345568D01*
X173332705Y-83499227D01*
X173154227Y-83677705D01*
X173000568Y-83877954D01*
X173000566Y-83877958D01*
X172874372Y-84096535D01*
X172874363Y-84096552D01*
X172777773Y-84329741D01*
X172712446Y-84573548D01*
X172679500Y-84823788D01*
X172679500Y-85076211D01*
X172695629Y-85198717D01*
X172712446Y-85326452D01*
X172716416Y-85341269D01*
X172777773Y-85570258D01*
X172874363Y-85803447D01*
X172874372Y-85803464D01*
X173000566Y-86022041D01*
X173000568Y-86022045D01*
X173154227Y-86222294D01*
X173154235Y-86222303D01*
X173160438Y-86228506D01*
X173193923Y-86289829D01*
X173188939Y-86359521D01*
X173147067Y-86415454D01*
X173081603Y-86439871D01*
X173072745Y-86440187D01*
X169127606Y-86439811D01*
X169060569Y-86420120D01*
X169014819Y-86367312D01*
X169004882Y-86298152D01*
X169033913Y-86234599D01*
X169039942Y-86228125D01*
X169045767Y-86222300D01*
X169045773Y-86222294D01*
X169175834Y-86052797D01*
X169199431Y-86022045D01*
X169199433Y-86022041D01*
X169325627Y-85803464D01*
X169325633Y-85803454D01*
X169422226Y-85570260D01*
X169487554Y-85326452D01*
X169520500Y-85076204D01*
X169520500Y-84823796D01*
X169487554Y-84573548D01*
X169422226Y-84329740D01*
X169379154Y-84225758D01*
X169325636Y-84096552D01*
X169325627Y-84096535D01*
X169199433Y-83877958D01*
X169199431Y-83877954D01*
X169045772Y-83677705D01*
X169045765Y-83677697D01*
X168867303Y-83499235D01*
X168867294Y-83499227D01*
X168667045Y-83345568D01*
X168667041Y-83345566D01*
X168448464Y-83219372D01*
X168448447Y-83219363D01*
X168215258Y-83122773D01*
X168060690Y-83081357D01*
X167971452Y-83057446D01*
X167940171Y-83053327D01*
X167721211Y-83024500D01*
X167721204Y-83024500D01*
X167468796Y-83024500D01*
X167468788Y-83024500D01*
X167218548Y-83057446D01*
X166974741Y-83122773D01*
X166741552Y-83219363D01*
X166741535Y-83219372D01*
X166522958Y-83345566D01*
X166522954Y-83345568D01*
X166322705Y-83499227D01*
X166144227Y-83677705D01*
X165990568Y-83877954D01*
X165990566Y-83877958D01*
X165864372Y-84096535D01*
X165864363Y-84096552D01*
X165767773Y-84329741D01*
X165702446Y-84573548D01*
X165669500Y-84823788D01*
X165669500Y-85076211D01*
X165685629Y-85198717D01*
X165702446Y-85326452D01*
X165706416Y-85341269D01*
X165726732Y-85417090D01*
X165725069Y-85486940D01*
X165685906Y-85544802D01*
X165621677Y-85572306D01*
X165552775Y-85560719D01*
X165534072Y-85549501D01*
X165531613Y-85547715D01*
X165531612Y-85547714D01*
X165531610Y-85547713D01*
X165474653Y-85518691D01*
X165349223Y-85454781D01*
X165154534Y-85391522D01*
X164979995Y-85363878D01*
X164952352Y-85359500D01*
X164952351Y-85359500D01*
X162403481Y-85359500D01*
X162396528Y-85359305D01*
X162082311Y-85341659D01*
X162068493Y-85340102D01*
X161761666Y-85287969D01*
X161748110Y-85284875D01*
X161449047Y-85198717D01*
X161435921Y-85194124D01*
X161148388Y-85075024D01*
X161135860Y-85068991D01*
X161113853Y-85056828D01*
X160863457Y-84918439D01*
X160851692Y-84911046D01*
X160597872Y-84730951D01*
X160587004Y-84722285D01*
X160354936Y-84514896D01*
X160345103Y-84505063D01*
X160137709Y-84272989D01*
X160129050Y-84262129D01*
X159948950Y-84008303D01*
X159941563Y-83996547D01*
X159791004Y-83724132D01*
X159784978Y-83711618D01*
X159665874Y-83424077D01*
X159661282Y-83410952D01*
X159575124Y-83111889D01*
X159572030Y-83098333D01*
X159550947Y-82974250D01*
X159519896Y-82791498D01*
X159518341Y-82777697D01*
X159500890Y-82466944D01*
X159500890Y-82453048D01*
X159507887Y-82328456D01*
X160595500Y-82328456D01*
X160595500Y-82571543D01*
X160595501Y-82571559D01*
X160627230Y-82812569D01*
X160690149Y-83047386D01*
X160783175Y-83271972D01*
X160783182Y-83271987D01*
X160904730Y-83482516D01*
X161052722Y-83675380D01*
X161052730Y-83675389D01*
X161224611Y-83847270D01*
X161224619Y-83847277D01*
X161417483Y-83995269D01*
X161628012Y-84116817D01*
X161628027Y-84116824D01*
X161708100Y-84149991D01*
X161852612Y-84209850D01*
X162087429Y-84272769D01*
X162328450Y-84304500D01*
X162328457Y-84304500D01*
X162571543Y-84304500D01*
X162571550Y-84304500D01*
X162812571Y-84272769D01*
X163047388Y-84209850D01*
X163271984Y-84116819D01*
X163482516Y-83995269D01*
X163675380Y-83847278D01*
X163675384Y-83847273D01*
X163675389Y-83847270D01*
X163847270Y-83675389D01*
X163847273Y-83675384D01*
X163847278Y-83675380D01*
X163995269Y-83482516D01*
X164116819Y-83271984D01*
X164209850Y-83047388D01*
X164272769Y-82812571D01*
X164304500Y-82571550D01*
X164304500Y-82328450D01*
X164272769Y-82087429D01*
X164209850Y-81852612D01*
X164138614Y-81680633D01*
X164116824Y-81628027D01*
X164116817Y-81628012D01*
X163995269Y-81417483D01*
X163847277Y-81224619D01*
X163847270Y-81224611D01*
X163675389Y-81052730D01*
X163675380Y-81052722D01*
X163482516Y-80904730D01*
X163271987Y-80783182D01*
X163271972Y-80783175D01*
X163047386Y-80690149D01*
X162812569Y-80627230D01*
X162571559Y-80595501D01*
X162571556Y-80595500D01*
X162571550Y-80595500D01*
X162328450Y-80595500D01*
X162328444Y-80595500D01*
X162328440Y-80595501D01*
X162087430Y-80627230D01*
X161852613Y-80690149D01*
X161628027Y-80783175D01*
X161628012Y-80783182D01*
X161417483Y-80904730D01*
X161224619Y-81052722D01*
X161052722Y-81224619D01*
X160904730Y-81417483D01*
X160783182Y-81628012D01*
X160783175Y-81628027D01*
X160690149Y-81852613D01*
X160627230Y-82087430D01*
X160595501Y-82328440D01*
X160595500Y-82328456D01*
X159507887Y-82328456D01*
X159518341Y-82142300D01*
X159519895Y-82128503D01*
X159572032Y-81821656D01*
X159575121Y-81808120D01*
X159661284Y-81509040D01*
X159665875Y-81495921D01*
X159698365Y-81417484D01*
X159784981Y-81208374D01*
X159791001Y-81195874D01*
X159941567Y-80923443D01*
X159948944Y-80911704D01*
X160129056Y-80657861D01*
X160137702Y-80647018D01*
X160345113Y-80414925D01*
X160354925Y-80405113D01*
X160587018Y-80197702D01*
X160597861Y-80189056D01*
X160851704Y-80008944D01*
X160863443Y-80001567D01*
X161135874Y-79851001D01*
X161148374Y-79844981D01*
X161435928Y-79725872D01*
X161449040Y-79721284D01*
X161748120Y-79635121D01*
X161761656Y-79632032D01*
X162068503Y-79579895D01*
X162082302Y-79578341D01*
X162356884Y-79562921D01*
X162396529Y-79560695D01*
X162403481Y-79560500D01*
X164952351Y-79560500D01*
X164952352Y-79560500D01*
X165154534Y-79528477D01*
X165349219Y-79465220D01*
X165531610Y-79372287D01*
X165531626Y-79372274D01*
X165535511Y-79369895D01*
X165602955Y-79351644D01*
X165669560Y-79372753D01*
X165714179Y-79426520D01*
X165722646Y-79495875D01*
X165720087Y-79507708D01*
X165702446Y-79573546D01*
X165669500Y-79823788D01*
X165669500Y-80076211D01*
X165702446Y-80326451D01*
X165767773Y-80570258D01*
X165864363Y-80803447D01*
X165864372Y-80803464D01*
X165990566Y-81022041D01*
X165990568Y-81022045D01*
X166144227Y-81222294D01*
X166144235Y-81222303D01*
X166322697Y-81400765D01*
X166322705Y-81400772D01*
X166522954Y-81554431D01*
X166522958Y-81554433D01*
X166741535Y-81680627D01*
X166741552Y-81680636D01*
X166870758Y-81734154D01*
X166974740Y-81777226D01*
X167218548Y-81842554D01*
X167468796Y-81875500D01*
X167468803Y-81875500D01*
X167721197Y-81875500D01*
X167721204Y-81875500D01*
X167971452Y-81842554D01*
X168215260Y-81777226D01*
X168448454Y-81680633D01*
X168667041Y-81554433D01*
X168667045Y-81554431D01*
X168726190Y-81509047D01*
X168867294Y-81400773D01*
X168867298Y-81400768D01*
X168867303Y-81400765D01*
X169045765Y-81222303D01*
X169045768Y-81222298D01*
X169045773Y-81222294D01*
X169199430Y-81022046D01*
X169325633Y-80803454D01*
X169422226Y-80570260D01*
X169487554Y-80326452D01*
X169520500Y-80076204D01*
X169520500Y-79823796D01*
X169487554Y-79573548D01*
X169422226Y-79329740D01*
X169330054Y-79107219D01*
X169325636Y-79096552D01*
X169325627Y-79096535D01*
X169199433Y-78877958D01*
X169199431Y-78877954D01*
X169062870Y-78699987D01*
X169037675Y-78634818D01*
X169051713Y-78566373D01*
X169100527Y-78516383D01*
X169161245Y-78500500D01*
X173038755Y-78500500D01*
X173105794Y-78520185D01*
X173151549Y-78572989D01*
X173161493Y-78642147D01*
X173137130Y-78699987D01*
X173000568Y-78877954D01*
X173000566Y-78877958D01*
X172874372Y-79096535D01*
X172874363Y-79096552D01*
X172777773Y-79329741D01*
X172712446Y-79573548D01*
X172679500Y-79823788D01*
X172679500Y-80076211D01*
X172712446Y-80326451D01*
X172777773Y-80570258D01*
X172874363Y-80803447D01*
X172874372Y-80803464D01*
X173000566Y-81022041D01*
X173000568Y-81022045D01*
X173154227Y-81222294D01*
X173154235Y-81222303D01*
X173332697Y-81400765D01*
X173332705Y-81400772D01*
X173532954Y-81554431D01*
X173532958Y-81554433D01*
X173751535Y-81680627D01*
X173751552Y-81680636D01*
X173880758Y-81734154D01*
X173984740Y-81777226D01*
X174228548Y-81842554D01*
X174478796Y-81875500D01*
X174478803Y-81875500D01*
X174731197Y-81875500D01*
X174731204Y-81875500D01*
X174981452Y-81842554D01*
X175225260Y-81777226D01*
X175458454Y-81680633D01*
X175677041Y-81554433D01*
X175677045Y-81554431D01*
X175736190Y-81509047D01*
X175877294Y-81400773D01*
X175877298Y-81400768D01*
X175877303Y-81400765D01*
X176055765Y-81222303D01*
X176055768Y-81222298D01*
X176055773Y-81222294D01*
X176209430Y-81022046D01*
X176335633Y-80803454D01*
X176432226Y-80570260D01*
X176497554Y-80326452D01*
X176530500Y-80076204D01*
X176530500Y-79823796D01*
X176497554Y-79573548D01*
X176432226Y-79329740D01*
X176340054Y-79107219D01*
X176335636Y-79096552D01*
X176335627Y-79096535D01*
X176209433Y-78877958D01*
X176209431Y-78877954D01*
X176072870Y-78699987D01*
X176047675Y-78634818D01*
X176061713Y-78566373D01*
X176110527Y-78516383D01*
X176171245Y-78500500D01*
X176314560Y-78500500D01*
X176314562Y-78500500D01*
X176390989Y-78480021D01*
X176459511Y-78440460D01*
X176515460Y-78384511D01*
X176555021Y-78315989D01*
X176575500Y-78239562D01*
X176575500Y-77783074D01*
X177445500Y-77783074D01*
X177445500Y-77956925D01*
X177472697Y-78128639D01*
X177472697Y-78128642D01*
X177526418Y-78293978D01*
X177572544Y-78384504D01*
X177605347Y-78448884D01*
X177707535Y-78589533D01*
X177830467Y-78712465D01*
X177971116Y-78814653D01*
X178095351Y-78877954D01*
X178126021Y-78893581D01*
X178291358Y-78947302D01*
X178291359Y-78947302D01*
X178291362Y-78947303D01*
X178463074Y-78974500D01*
X178463075Y-78974500D01*
X178636925Y-78974500D01*
X178636926Y-78974500D01*
X178808638Y-78947303D01*
X178808641Y-78947302D01*
X178808642Y-78947302D01*
X178973978Y-78893581D01*
X178973978Y-78893580D01*
X178973981Y-78893580D01*
X179128884Y-78814653D01*
X179269533Y-78712465D01*
X179392465Y-78589533D01*
X179494653Y-78448884D01*
X179573580Y-78293981D01*
X179591262Y-78239562D01*
X179627302Y-78128642D01*
X179627302Y-78128641D01*
X179627303Y-78128638D01*
X179654500Y-77956926D01*
X179654500Y-77783074D01*
X179945500Y-77783074D01*
X179945500Y-77956925D01*
X179972697Y-78128639D01*
X179972697Y-78128642D01*
X180026418Y-78293978D01*
X180072544Y-78384504D01*
X180105347Y-78448884D01*
X180207535Y-78589533D01*
X180330467Y-78712465D01*
X180471116Y-78814653D01*
X180595351Y-78877954D01*
X180626021Y-78893581D01*
X180791358Y-78947302D01*
X180791359Y-78947302D01*
X180791362Y-78947303D01*
X180963074Y-78974500D01*
X180963075Y-78974500D01*
X181136925Y-78974500D01*
X181136926Y-78974500D01*
X181308638Y-78947303D01*
X181308641Y-78947302D01*
X181308642Y-78947302D01*
X181473978Y-78893581D01*
X181473978Y-78893580D01*
X181473981Y-78893580D01*
X181628884Y-78814653D01*
X181769533Y-78712465D01*
X181892465Y-78589533D01*
X181994653Y-78448884D01*
X182073580Y-78293981D01*
X182091262Y-78239562D01*
X182127302Y-78128642D01*
X182127302Y-78128641D01*
X182127303Y-78128638D01*
X182154500Y-77956926D01*
X182154500Y-77783074D01*
X182127303Y-77611362D01*
X182127302Y-77611358D01*
X182127302Y-77611357D01*
X182073581Y-77446021D01*
X181994652Y-77291115D01*
X181892465Y-77150467D01*
X181769533Y-77027535D01*
X181628884Y-76925347D01*
X181473978Y-76846418D01*
X181308641Y-76792697D01*
X181179854Y-76772299D01*
X181136926Y-76765500D01*
X180963074Y-76765500D01*
X180905836Y-76774565D01*
X180791360Y-76792697D01*
X180791357Y-76792697D01*
X180626021Y-76846418D01*
X180471115Y-76925347D01*
X180390869Y-76983649D01*
X180330467Y-77027535D01*
X180330465Y-77027537D01*
X180330464Y-77027537D01*
X180207537Y-77150464D01*
X180207537Y-77150465D01*
X180207535Y-77150467D01*
X180163649Y-77210869D01*
X180105347Y-77291115D01*
X180026418Y-77446021D01*
X179972697Y-77611357D01*
X179972697Y-77611360D01*
X179945500Y-77783074D01*
X179654500Y-77783074D01*
X179627303Y-77611362D01*
X179627302Y-77611358D01*
X179627302Y-77611357D01*
X179573581Y-77446021D01*
X179494652Y-77291115D01*
X179392465Y-77150467D01*
X179269533Y-77027535D01*
X179128884Y-76925347D01*
X178973978Y-76846418D01*
X178808641Y-76792697D01*
X178679854Y-76772299D01*
X178636926Y-76765500D01*
X178463074Y-76765500D01*
X178405836Y-76774565D01*
X178291360Y-76792697D01*
X178291357Y-76792697D01*
X178126021Y-76846418D01*
X177971115Y-76925347D01*
X177890869Y-76983649D01*
X177830467Y-77027535D01*
X177830465Y-77027537D01*
X177830464Y-77027537D01*
X177707537Y-77150464D01*
X177707537Y-77150465D01*
X177707535Y-77150467D01*
X177663649Y-77210869D01*
X177605347Y-77291115D01*
X177526418Y-77446021D01*
X177472697Y-77611357D01*
X177472697Y-77611360D01*
X177445500Y-77783074D01*
X176575500Y-77783074D01*
X176575500Y-74574500D01*
X176595185Y-74507461D01*
X176647989Y-74461706D01*
X176699500Y-74450500D01*
X182371966Y-74450500D01*
X182371969Y-74450500D01*
X182714250Y-74416789D01*
X183051578Y-74349690D01*
X183380705Y-74249850D01*
X183698462Y-74118231D01*
X184001787Y-73956100D01*
X184287760Y-73765019D01*
X184553627Y-73546828D01*
X184796828Y-73303627D01*
X185015019Y-73037760D01*
X185206100Y-72751787D01*
X185368231Y-72448462D01*
X185499850Y-72130705D01*
X185599690Y-71801578D01*
X185666789Y-71464250D01*
X185700500Y-71121969D01*
X185700500Y-70950000D01*
X185700500Y-70918872D01*
X186949500Y-70918872D01*
X186949500Y-71181127D01*
X186976123Y-71383339D01*
X186983730Y-71441116D01*
X187051602Y-71694418D01*
X187051605Y-71694428D01*
X187151953Y-71936690D01*
X187151958Y-71936700D01*
X187283075Y-72163803D01*
X187442718Y-72371851D01*
X187442726Y-72371860D01*
X187628140Y-72557274D01*
X187628148Y-72557281D01*
X187836196Y-72716924D01*
X188063299Y-72848041D01*
X188063309Y-72848046D01*
X188305571Y-72948394D01*
X188305581Y-72948398D01*
X188558884Y-73016270D01*
X188818880Y-73050500D01*
X188818887Y-73050500D01*
X189081113Y-73050500D01*
X189081120Y-73050500D01*
X189341116Y-73016270D01*
X189594419Y-72948398D01*
X189836697Y-72848043D01*
X190063803Y-72716924D01*
X190271851Y-72557282D01*
X190271855Y-72557277D01*
X190271860Y-72557274D01*
X190457274Y-72371860D01*
X190457277Y-72371855D01*
X190457282Y-72371851D01*
X190616924Y-72163803D01*
X190748043Y-71936697D01*
X190848398Y-71694419D01*
X190916270Y-71441116D01*
X190950500Y-71181120D01*
X190950500Y-70918880D01*
X190916270Y-70658884D01*
X190848398Y-70405581D01*
X190848394Y-70405571D01*
X190748046Y-70163309D01*
X190748041Y-70163299D01*
X190616924Y-69936196D01*
X190457281Y-69728148D01*
X190457274Y-69728140D01*
X190271860Y-69542726D01*
X190271851Y-69542718D01*
X190063803Y-69383075D01*
X189836700Y-69251958D01*
X189836690Y-69251953D01*
X189594428Y-69151605D01*
X189594421Y-69151603D01*
X189594419Y-69151602D01*
X189341116Y-69083730D01*
X189283339Y-69076123D01*
X189081127Y-69049500D01*
X189081120Y-69049500D01*
X188818880Y-69049500D01*
X188818872Y-69049500D01*
X188587772Y-69079926D01*
X188558884Y-69083730D01*
X188305581Y-69151602D01*
X188305571Y-69151605D01*
X188063309Y-69251953D01*
X188063299Y-69251958D01*
X187836196Y-69383075D01*
X187628148Y-69542718D01*
X187442718Y-69728148D01*
X187283075Y-69936196D01*
X187151958Y-70163299D01*
X187151953Y-70163309D01*
X187051605Y-70405571D01*
X187051602Y-70405581D01*
X186983730Y-70658885D01*
X186949500Y-70918872D01*
X185700500Y-70918872D01*
X185700500Y-70902405D01*
X185700500Y-68306092D01*
X185701097Y-68293938D01*
X185712744Y-68175680D01*
X185717483Y-68151856D01*
X185750203Y-68043990D01*
X185759499Y-68021549D01*
X185812632Y-67922144D01*
X185826133Y-67901940D01*
X185897635Y-67814814D01*
X185914814Y-67797635D01*
X186001942Y-67726131D01*
X186022144Y-67712632D01*
X186121549Y-67659499D01*
X186143990Y-67650203D01*
X186251856Y-67617483D01*
X186275682Y-67612744D01*
X186375730Y-67602890D01*
X186393940Y-67601097D01*
X186406093Y-67600500D01*
X188132276Y-67600500D01*
X188132276Y-67600499D01*
X188444840Y-67565282D01*
X188751500Y-67495289D01*
X189048394Y-67391402D01*
X189331789Y-67254926D01*
X189331792Y-67254923D01*
X189331796Y-67254922D01*
X189476527Y-67163981D01*
X189542478Y-67144974D01*
X193485999Y-67144366D01*
X193553041Y-67164040D01*
G37*
%TD.AperFunction*%
%TD*%
M02*
