%TF.GenerationSoftware,KiCad,Pcbnew,9.0.5*%
%TF.CreationDate,2025-10-15T11:44:02-05:00*%
%TF.ProjectId,PS-LVBatteryPCB,50532d4c-5642-4617-9474-657279504342,rev?*%
%TF.SameCoordinates,Original*%
%TF.FileFunction,Legend,Top*%
%TF.FilePolarity,Positive*%
%FSLAX46Y46*%
G04 Gerber Fmt 4.6, Leading zero omitted, Abs format (unit mm)*
G04 Created by KiCad (PCBNEW 9.0.5) date 2025-10-15 11:44:02*
%MOMM*%
%LPD*%
G01*
G04 APERTURE LIST*
%ADD10C,0.150000*%
%ADD11C,0.120000*%
%ADD12C,0.127000*%
G04 APERTURE END LIST*
D10*
X175267704Y-81575715D02*
X176067704Y-81575715D01*
X175267704Y-81956667D02*
X176067704Y-81956667D01*
X176067704Y-81956667D02*
X175267704Y-82413810D01*
X175267704Y-82413810D02*
X176067704Y-82413810D01*
X175572466Y-82794762D02*
X175572466Y-83404286D01*
X197720112Y-68636340D02*
X197339160Y-68636340D01*
X197339160Y-68636340D02*
X197339160Y-67836340D01*
X198291541Y-68598245D02*
X198215350Y-68636340D01*
X198215350Y-68636340D02*
X198062969Y-68636340D01*
X198062969Y-68636340D02*
X197986779Y-68598245D01*
X197986779Y-68598245D02*
X197948683Y-68522054D01*
X197948683Y-68522054D02*
X197948683Y-68217292D01*
X197948683Y-68217292D02*
X197986779Y-68141102D01*
X197986779Y-68141102D02*
X198062969Y-68103006D01*
X198062969Y-68103006D02*
X198215350Y-68103006D01*
X198215350Y-68103006D02*
X198291541Y-68141102D01*
X198291541Y-68141102D02*
X198329636Y-68217292D01*
X198329636Y-68217292D02*
X198329636Y-68293483D01*
X198329636Y-68293483D02*
X197948683Y-68369673D01*
X198786778Y-68636340D02*
X198710588Y-68598245D01*
X198710588Y-68598245D02*
X198672493Y-68560149D01*
X198672493Y-68560149D02*
X198634397Y-68483959D01*
X198634397Y-68483959D02*
X198634397Y-68255387D01*
X198634397Y-68255387D02*
X198672493Y-68179197D01*
X198672493Y-68179197D02*
X198710588Y-68141102D01*
X198710588Y-68141102D02*
X198786778Y-68103006D01*
X198786778Y-68103006D02*
X198901064Y-68103006D01*
X198901064Y-68103006D02*
X198977255Y-68141102D01*
X198977255Y-68141102D02*
X199015350Y-68179197D01*
X199015350Y-68179197D02*
X199053445Y-68255387D01*
X199053445Y-68255387D02*
X199053445Y-68483959D01*
X199053445Y-68483959D02*
X199015350Y-68560149D01*
X199015350Y-68560149D02*
X198977255Y-68598245D01*
X198977255Y-68598245D02*
X198901064Y-68636340D01*
X198901064Y-68636340D02*
X198786778Y-68636340D01*
X200272493Y-68217292D02*
X200386779Y-68255387D01*
X200386779Y-68255387D02*
X200424874Y-68293483D01*
X200424874Y-68293483D02*
X200462970Y-68369673D01*
X200462970Y-68369673D02*
X200462970Y-68483959D01*
X200462970Y-68483959D02*
X200424874Y-68560149D01*
X200424874Y-68560149D02*
X200386779Y-68598245D01*
X200386779Y-68598245D02*
X200310589Y-68636340D01*
X200310589Y-68636340D02*
X200005827Y-68636340D01*
X200005827Y-68636340D02*
X200005827Y-67836340D01*
X200005827Y-67836340D02*
X200272493Y-67836340D01*
X200272493Y-67836340D02*
X200348684Y-67874435D01*
X200348684Y-67874435D02*
X200386779Y-67912530D01*
X200386779Y-67912530D02*
X200424874Y-67988721D01*
X200424874Y-67988721D02*
X200424874Y-68064911D01*
X200424874Y-68064911D02*
X200386779Y-68141102D01*
X200386779Y-68141102D02*
X200348684Y-68179197D01*
X200348684Y-68179197D02*
X200272493Y-68217292D01*
X200272493Y-68217292D02*
X200005827Y-68217292D01*
X200805827Y-68560149D02*
X200843922Y-68598245D01*
X200843922Y-68598245D02*
X200805827Y-68636340D01*
X200805827Y-68636340D02*
X200767731Y-68598245D01*
X200767731Y-68598245D02*
X200805827Y-68560149D01*
X200805827Y-68560149D02*
X200805827Y-68636340D01*
X197301064Y-69695723D02*
X197682017Y-69695723D01*
X197224874Y-69924295D02*
X197491541Y-69124295D01*
X197491541Y-69124295D02*
X197758207Y-69924295D01*
X198024874Y-69924295D02*
X198024874Y-69124295D01*
X198024874Y-69429057D02*
X198101064Y-69390961D01*
X198101064Y-69390961D02*
X198253445Y-69390961D01*
X198253445Y-69390961D02*
X198329636Y-69429057D01*
X198329636Y-69429057D02*
X198367731Y-69467152D01*
X198367731Y-69467152D02*
X198405826Y-69543342D01*
X198405826Y-69543342D02*
X198405826Y-69771914D01*
X198405826Y-69771914D02*
X198367731Y-69848104D01*
X198367731Y-69848104D02*
X198329636Y-69886200D01*
X198329636Y-69886200D02*
X198253445Y-69924295D01*
X198253445Y-69924295D02*
X198101064Y-69924295D01*
X198101064Y-69924295D02*
X198024874Y-69886200D01*
X199053446Y-69886200D02*
X198977255Y-69924295D01*
X198977255Y-69924295D02*
X198824874Y-69924295D01*
X198824874Y-69924295D02*
X198748684Y-69886200D01*
X198748684Y-69886200D02*
X198710588Y-69810009D01*
X198710588Y-69810009D02*
X198710588Y-69505247D01*
X198710588Y-69505247D02*
X198748684Y-69429057D01*
X198748684Y-69429057D02*
X198824874Y-69390961D01*
X198824874Y-69390961D02*
X198977255Y-69390961D01*
X198977255Y-69390961D02*
X199053446Y-69429057D01*
X199053446Y-69429057D02*
X199091541Y-69505247D01*
X199091541Y-69505247D02*
X199091541Y-69581438D01*
X199091541Y-69581438D02*
X198710588Y-69657628D01*
X199548683Y-69924295D02*
X199472493Y-69886200D01*
X199472493Y-69886200D02*
X199434398Y-69810009D01*
X199434398Y-69810009D02*
X199434398Y-69124295D01*
X200386779Y-69124295D02*
X200577255Y-69924295D01*
X200577255Y-69924295D02*
X200729636Y-69352866D01*
X200729636Y-69352866D02*
X200882017Y-69924295D01*
X200882017Y-69924295D02*
X201072494Y-69124295D01*
X201377256Y-69848104D02*
X201415351Y-69886200D01*
X201415351Y-69886200D02*
X201377256Y-69924295D01*
X201377256Y-69924295D02*
X201339160Y-69886200D01*
X201339160Y-69886200D02*
X201377256Y-69848104D01*
X201377256Y-69848104D02*
X201377256Y-69924295D01*
X183177704Y-74600952D02*
X183977704Y-74600952D01*
X183977704Y-74600952D02*
X183177704Y-75058095D01*
X183177704Y-75058095D02*
X183977704Y-75058095D01*
X183977704Y-75324761D02*
X183977704Y-75781904D01*
X183177704Y-75553332D02*
X183977704Y-75553332D01*
X183253895Y-76505714D02*
X183215800Y-76467618D01*
X183215800Y-76467618D02*
X183177704Y-76353333D01*
X183177704Y-76353333D02*
X183177704Y-76277142D01*
X183177704Y-76277142D02*
X183215800Y-76162856D01*
X183215800Y-76162856D02*
X183291990Y-76086666D01*
X183291990Y-76086666D02*
X183368180Y-76048571D01*
X183368180Y-76048571D02*
X183520561Y-76010475D01*
X183520561Y-76010475D02*
X183634847Y-76010475D01*
X183634847Y-76010475D02*
X183787228Y-76048571D01*
X183787228Y-76048571D02*
X183863419Y-76086666D01*
X183863419Y-76086666D02*
X183939609Y-76162856D01*
X183939609Y-76162856D02*
X183977704Y-76277142D01*
X183977704Y-76277142D02*
X183977704Y-76353333D01*
X183977704Y-76353333D02*
X183939609Y-76467618D01*
X183939609Y-76467618D02*
X183901514Y-76505714D01*
X183101514Y-76658095D02*
X183101514Y-77267618D01*
X183901514Y-77419999D02*
X183939609Y-77458095D01*
X183939609Y-77458095D02*
X183977704Y-77534285D01*
X183977704Y-77534285D02*
X183977704Y-77724761D01*
X183977704Y-77724761D02*
X183939609Y-77800952D01*
X183939609Y-77800952D02*
X183901514Y-77839047D01*
X183901514Y-77839047D02*
X183825323Y-77877142D01*
X183825323Y-77877142D02*
X183749133Y-77877142D01*
X183749133Y-77877142D02*
X183634847Y-77839047D01*
X183634847Y-77839047D02*
X183177704Y-77381904D01*
X183177704Y-77381904D02*
X183177704Y-77877142D01*
X191977704Y-67984762D02*
X192777704Y-67984762D01*
X192777704Y-67984762D02*
X192777704Y-68289524D01*
X192777704Y-68289524D02*
X192739609Y-68365714D01*
X192739609Y-68365714D02*
X192701514Y-68403809D01*
X192701514Y-68403809D02*
X192625323Y-68441905D01*
X192625323Y-68441905D02*
X192511038Y-68441905D01*
X192511038Y-68441905D02*
X192434847Y-68403809D01*
X192434847Y-68403809D02*
X192396752Y-68365714D01*
X192396752Y-68365714D02*
X192358657Y-68289524D01*
X192358657Y-68289524D02*
X192358657Y-67984762D01*
X192777704Y-68937143D02*
X192777704Y-69089524D01*
X192777704Y-69089524D02*
X192739609Y-69165714D01*
X192739609Y-69165714D02*
X192663419Y-69241905D01*
X192663419Y-69241905D02*
X192511038Y-69280000D01*
X192511038Y-69280000D02*
X192244371Y-69280000D01*
X192244371Y-69280000D02*
X192091990Y-69241905D01*
X192091990Y-69241905D02*
X192015800Y-69165714D01*
X192015800Y-69165714D02*
X191977704Y-69089524D01*
X191977704Y-69089524D02*
X191977704Y-68937143D01*
X191977704Y-68937143D02*
X192015800Y-68860952D01*
X192015800Y-68860952D02*
X192091990Y-68784762D01*
X192091990Y-68784762D02*
X192244371Y-68746666D01*
X192244371Y-68746666D02*
X192511038Y-68746666D01*
X192511038Y-68746666D02*
X192663419Y-68784762D01*
X192663419Y-68784762D02*
X192739609Y-68860952D01*
X192739609Y-68860952D02*
X192777704Y-68937143D01*
X192777704Y-69546666D02*
X191977704Y-69737142D01*
X191977704Y-69737142D02*
X192549133Y-69889523D01*
X192549133Y-69889523D02*
X191977704Y-70041904D01*
X191977704Y-70041904D02*
X192777704Y-70232381D01*
X192396752Y-70537143D02*
X192396752Y-70803809D01*
X191977704Y-70918095D02*
X191977704Y-70537143D01*
X191977704Y-70537143D02*
X192777704Y-70537143D01*
X192777704Y-70537143D02*
X192777704Y-70918095D01*
X191977704Y-71718096D02*
X192358657Y-71451429D01*
X191977704Y-71260953D02*
X192777704Y-71260953D01*
X192777704Y-71260953D02*
X192777704Y-71565715D01*
X192777704Y-71565715D02*
X192739609Y-71641905D01*
X192739609Y-71641905D02*
X192701514Y-71680000D01*
X192701514Y-71680000D02*
X192625323Y-71718096D01*
X192625323Y-71718096D02*
X192511038Y-71718096D01*
X192511038Y-71718096D02*
X192434847Y-71680000D01*
X192434847Y-71680000D02*
X192396752Y-71641905D01*
X192396752Y-71641905D02*
X192358657Y-71565715D01*
X192358657Y-71565715D02*
X192358657Y-71260953D01*
X191901514Y-71870477D02*
X191901514Y-72480000D01*
X192777704Y-72822858D02*
X192777704Y-72975239D01*
X192777704Y-72975239D02*
X192739609Y-73051429D01*
X192739609Y-73051429D02*
X192663419Y-73127620D01*
X192663419Y-73127620D02*
X192511038Y-73165715D01*
X192511038Y-73165715D02*
X192244371Y-73165715D01*
X192244371Y-73165715D02*
X192091990Y-73127620D01*
X192091990Y-73127620D02*
X192015800Y-73051429D01*
X192015800Y-73051429D02*
X191977704Y-72975239D01*
X191977704Y-72975239D02*
X191977704Y-72822858D01*
X191977704Y-72822858D02*
X192015800Y-72746667D01*
X192015800Y-72746667D02*
X192091990Y-72670477D01*
X192091990Y-72670477D02*
X192244371Y-72632381D01*
X192244371Y-72632381D02*
X192511038Y-72632381D01*
X192511038Y-72632381D02*
X192663419Y-72670477D01*
X192663419Y-72670477D02*
X192739609Y-72746667D01*
X192739609Y-72746667D02*
X192777704Y-72822858D01*
X192777704Y-73508572D02*
X192130085Y-73508572D01*
X192130085Y-73508572D02*
X192053895Y-73546667D01*
X192053895Y-73546667D02*
X192015800Y-73584762D01*
X192015800Y-73584762D02*
X191977704Y-73660953D01*
X191977704Y-73660953D02*
X191977704Y-73813334D01*
X191977704Y-73813334D02*
X192015800Y-73889524D01*
X192015800Y-73889524D02*
X192053895Y-73927619D01*
X192053895Y-73927619D02*
X192130085Y-73965715D01*
X192130085Y-73965715D02*
X192777704Y-73965715D01*
X192777704Y-74232381D02*
X192777704Y-74689524D01*
X191977704Y-74460952D02*
X192777704Y-74460952D01*
X194419048Y-71942295D02*
X194419048Y-71142295D01*
X194419048Y-71142295D02*
X194876191Y-71942295D01*
X194876191Y-71942295D02*
X194876191Y-71142295D01*
X195142857Y-71142295D02*
X195600000Y-71142295D01*
X195371428Y-71942295D02*
X195371428Y-71142295D01*
X196323810Y-71866104D02*
X196285714Y-71904200D01*
X196285714Y-71904200D02*
X196171429Y-71942295D01*
X196171429Y-71942295D02*
X196095238Y-71942295D01*
X196095238Y-71942295D02*
X195980952Y-71904200D01*
X195980952Y-71904200D02*
X195904762Y-71828009D01*
X195904762Y-71828009D02*
X195866667Y-71751819D01*
X195866667Y-71751819D02*
X195828571Y-71599438D01*
X195828571Y-71599438D02*
X195828571Y-71485152D01*
X195828571Y-71485152D02*
X195866667Y-71332771D01*
X195866667Y-71332771D02*
X195904762Y-71256580D01*
X195904762Y-71256580D02*
X195980952Y-71180390D01*
X195980952Y-71180390D02*
X196095238Y-71142295D01*
X196095238Y-71142295D02*
X196171429Y-71142295D01*
X196171429Y-71142295D02*
X196285714Y-71180390D01*
X196285714Y-71180390D02*
X196323810Y-71218485D01*
X196476191Y-72018485D02*
X197085714Y-72018485D01*
X197428572Y-71142295D02*
X197580953Y-71142295D01*
X197580953Y-71142295D02*
X197657143Y-71180390D01*
X197657143Y-71180390D02*
X197733334Y-71256580D01*
X197733334Y-71256580D02*
X197771429Y-71408961D01*
X197771429Y-71408961D02*
X197771429Y-71675628D01*
X197771429Y-71675628D02*
X197733334Y-71828009D01*
X197733334Y-71828009D02*
X197657143Y-71904200D01*
X197657143Y-71904200D02*
X197580953Y-71942295D01*
X197580953Y-71942295D02*
X197428572Y-71942295D01*
X197428572Y-71942295D02*
X197352381Y-71904200D01*
X197352381Y-71904200D02*
X197276191Y-71828009D01*
X197276191Y-71828009D02*
X197238095Y-71675628D01*
X197238095Y-71675628D02*
X197238095Y-71408961D01*
X197238095Y-71408961D02*
X197276191Y-71256580D01*
X197276191Y-71256580D02*
X197352381Y-71180390D01*
X197352381Y-71180390D02*
X197428572Y-71142295D01*
X198114286Y-71142295D02*
X198114286Y-71789914D01*
X198114286Y-71789914D02*
X198152381Y-71866104D01*
X198152381Y-71866104D02*
X198190476Y-71904200D01*
X198190476Y-71904200D02*
X198266667Y-71942295D01*
X198266667Y-71942295D02*
X198419048Y-71942295D01*
X198419048Y-71942295D02*
X198495238Y-71904200D01*
X198495238Y-71904200D02*
X198533333Y-71866104D01*
X198533333Y-71866104D02*
X198571429Y-71789914D01*
X198571429Y-71789914D02*
X198571429Y-71142295D01*
X198838095Y-71142295D02*
X199295238Y-71142295D01*
X199066666Y-71942295D02*
X199066666Y-71142295D01*
X207550952Y-78862295D02*
X207550952Y-78062295D01*
X207550952Y-78062295D02*
X208008095Y-78862295D01*
X208008095Y-78862295D02*
X208008095Y-78062295D01*
X208274761Y-78062295D02*
X208731904Y-78062295D01*
X208503332Y-78862295D02*
X208503332Y-78062295D01*
X209455714Y-78786104D02*
X209417618Y-78824200D01*
X209417618Y-78824200D02*
X209303333Y-78862295D01*
X209303333Y-78862295D02*
X209227142Y-78862295D01*
X209227142Y-78862295D02*
X209112856Y-78824200D01*
X209112856Y-78824200D02*
X209036666Y-78748009D01*
X209036666Y-78748009D02*
X208998571Y-78671819D01*
X208998571Y-78671819D02*
X208960475Y-78519438D01*
X208960475Y-78519438D02*
X208960475Y-78405152D01*
X208960475Y-78405152D02*
X208998571Y-78252771D01*
X208998571Y-78252771D02*
X209036666Y-78176580D01*
X209036666Y-78176580D02*
X209112856Y-78100390D01*
X209112856Y-78100390D02*
X209227142Y-78062295D01*
X209227142Y-78062295D02*
X209303333Y-78062295D01*
X209303333Y-78062295D02*
X209417618Y-78100390D01*
X209417618Y-78100390D02*
X209455714Y-78138485D01*
X209608095Y-78938485D02*
X210217618Y-78938485D01*
X210827142Y-78862295D02*
X210369999Y-78862295D01*
X210598571Y-78862295D02*
X210598571Y-78062295D01*
X210598571Y-78062295D02*
X210522380Y-78176580D01*
X210522380Y-78176580D02*
X210446190Y-78252771D01*
X210446190Y-78252771D02*
X210369999Y-78290866D01*
X212432295Y-83274284D02*
X211632295Y-83274284D01*
X212432295Y-82893332D02*
X211632295Y-82893332D01*
X211632295Y-82893332D02*
X212432295Y-82436189D01*
X212432295Y-82436189D02*
X211632295Y-82436189D01*
X212127533Y-82055237D02*
X212127533Y-81445714D01*
X212432295Y-81750475D02*
X211822771Y-81750475D01*
X185242295Y-84474762D02*
X185242295Y-84931905D01*
X185242295Y-84703333D02*
X184442295Y-84703333D01*
X184442295Y-84703333D02*
X184556580Y-84779524D01*
X184556580Y-84779524D02*
X184632771Y-84855714D01*
X184632771Y-84855714D02*
X184670866Y-84931905D01*
X184518485Y-84170000D02*
X184480390Y-84131904D01*
X184480390Y-84131904D02*
X184442295Y-84055714D01*
X184442295Y-84055714D02*
X184442295Y-83865238D01*
X184442295Y-83865238D02*
X184480390Y-83789047D01*
X184480390Y-83789047D02*
X184518485Y-83750952D01*
X184518485Y-83750952D02*
X184594676Y-83712857D01*
X184594676Y-83712857D02*
X184670866Y-83712857D01*
X184670866Y-83712857D02*
X184785152Y-83750952D01*
X184785152Y-83750952D02*
X185242295Y-84208095D01*
X185242295Y-84208095D02*
X185242295Y-83712857D01*
X185013723Y-83408095D02*
X185013723Y-83027142D01*
X185242295Y-83484285D02*
X184442295Y-83217618D01*
X184442295Y-83217618D02*
X185242295Y-82950952D01*
X185318485Y-82874762D02*
X185318485Y-82265238D01*
X184823247Y-81808095D02*
X184823247Y-82074761D01*
X185242295Y-82074761D02*
X184442295Y-82074761D01*
X184442295Y-82074761D02*
X184442295Y-81693809D01*
X184442295Y-81389047D02*
X185089914Y-81389047D01*
X185089914Y-81389047D02*
X185166104Y-81350952D01*
X185166104Y-81350952D02*
X185204200Y-81312857D01*
X185204200Y-81312857D02*
X185242295Y-81236666D01*
X185242295Y-81236666D02*
X185242295Y-81084285D01*
X185242295Y-81084285D02*
X185204200Y-81008095D01*
X185204200Y-81008095D02*
X185166104Y-80970000D01*
X185166104Y-80970000D02*
X185089914Y-80931904D01*
X185089914Y-80931904D02*
X184442295Y-80931904D01*
X185204200Y-80589048D02*
X185242295Y-80474762D01*
X185242295Y-80474762D02*
X185242295Y-80284286D01*
X185242295Y-80284286D02*
X185204200Y-80208095D01*
X185204200Y-80208095D02*
X185166104Y-80170000D01*
X185166104Y-80170000D02*
X185089914Y-80131905D01*
X185089914Y-80131905D02*
X185013723Y-80131905D01*
X185013723Y-80131905D02*
X184937533Y-80170000D01*
X184937533Y-80170000D02*
X184899438Y-80208095D01*
X184899438Y-80208095D02*
X184861342Y-80284286D01*
X184861342Y-80284286D02*
X184823247Y-80436667D01*
X184823247Y-80436667D02*
X184785152Y-80512857D01*
X184785152Y-80512857D02*
X184747057Y-80550952D01*
X184747057Y-80550952D02*
X184670866Y-80589048D01*
X184670866Y-80589048D02*
X184594676Y-80589048D01*
X184594676Y-80589048D02*
X184518485Y-80550952D01*
X184518485Y-80550952D02*
X184480390Y-80512857D01*
X184480390Y-80512857D02*
X184442295Y-80436667D01*
X184442295Y-80436667D02*
X184442295Y-80246190D01*
X184442295Y-80246190D02*
X184480390Y-80131905D01*
X184823247Y-79789047D02*
X184823247Y-79522381D01*
X185242295Y-79408095D02*
X185242295Y-79789047D01*
X185242295Y-79789047D02*
X184442295Y-79789047D01*
X184442295Y-79789047D02*
X184442295Y-79408095D01*
X200066666Y-73484819D02*
X200066666Y-74199104D01*
X200066666Y-74199104D02*
X200019047Y-74341961D01*
X200019047Y-74341961D02*
X199923809Y-74437200D01*
X199923809Y-74437200D02*
X199780952Y-74484819D01*
X199780952Y-74484819D02*
X199685714Y-74484819D01*
X200447619Y-73484819D02*
X201066666Y-73484819D01*
X201066666Y-73484819D02*
X200733333Y-73865771D01*
X200733333Y-73865771D02*
X200876190Y-73865771D01*
X200876190Y-73865771D02*
X200971428Y-73913390D01*
X200971428Y-73913390D02*
X201019047Y-73961009D01*
X201019047Y-73961009D02*
X201066666Y-74056247D01*
X201066666Y-74056247D02*
X201066666Y-74294342D01*
X201066666Y-74294342D02*
X201019047Y-74389580D01*
X201019047Y-74389580D02*
X200971428Y-74437200D01*
X200971428Y-74437200D02*
X200876190Y-74484819D01*
X200876190Y-74484819D02*
X200590476Y-74484819D01*
X200590476Y-74484819D02*
X200495238Y-74437200D01*
X200495238Y-74437200D02*
X200447619Y-74389580D01*
X190940907Y-78290658D02*
X191391199Y-78642464D01*
X191391199Y-78642464D02*
X191457804Y-78742845D01*
X191457804Y-78742845D02*
X191470935Y-78849791D01*
X191470935Y-78849791D02*
X191430593Y-78963303D01*
X191430593Y-78963303D02*
X191383686Y-79023342D01*
X191386529Y-77720288D02*
X191292714Y-77840366D01*
X191292714Y-77840366D02*
X191275826Y-77923858D01*
X191275826Y-77923858D02*
X191282392Y-77977331D01*
X191282392Y-77977331D02*
X191325542Y-78107732D01*
X191325542Y-78107732D02*
X191422166Y-78231566D01*
X191422166Y-78231566D02*
X191662322Y-78419196D01*
X191662322Y-78419196D02*
X191745815Y-78436084D01*
X191745815Y-78436084D02*
X191799288Y-78429519D01*
X191799288Y-78429519D02*
X191876215Y-78392934D01*
X191876215Y-78392934D02*
X191970030Y-78272856D01*
X191970030Y-78272856D02*
X191986918Y-78189363D01*
X191986918Y-78189363D02*
X191980352Y-78135890D01*
X191980352Y-78135890D02*
X191943767Y-78058963D01*
X191943767Y-78058963D02*
X191793670Y-77941694D01*
X191793670Y-77941694D02*
X191710177Y-77924806D01*
X191710177Y-77924806D02*
X191656704Y-77931372D01*
X191656704Y-77931372D02*
X191579777Y-77967957D01*
X191579777Y-77967957D02*
X191485962Y-78088035D01*
X191485962Y-78088035D02*
X191469074Y-78171527D01*
X191469074Y-78171527D02*
X191475640Y-78225000D01*
X191475640Y-78225000D02*
X191512225Y-78301927D01*
X186314700Y-78921428D02*
X186314700Y-77778571D01*
X186886128Y-78349999D02*
X185743271Y-78349999D01*
X188328571Y-67814700D02*
X189471429Y-67814700D01*
X182666666Y-84264819D02*
X182666666Y-84979104D01*
X182666666Y-84979104D02*
X182619047Y-85121961D01*
X182619047Y-85121961D02*
X182523809Y-85217200D01*
X182523809Y-85217200D02*
X182380952Y-85264819D01*
X182380952Y-85264819D02*
X182285714Y-85264819D01*
X183095238Y-84360057D02*
X183142857Y-84312438D01*
X183142857Y-84312438D02*
X183238095Y-84264819D01*
X183238095Y-84264819D02*
X183476190Y-84264819D01*
X183476190Y-84264819D02*
X183571428Y-84312438D01*
X183571428Y-84312438D02*
X183619047Y-84360057D01*
X183619047Y-84360057D02*
X183666666Y-84455295D01*
X183666666Y-84455295D02*
X183666666Y-84550533D01*
X183666666Y-84550533D02*
X183619047Y-84693390D01*
X183619047Y-84693390D02*
X183047619Y-85264819D01*
X183047619Y-85264819D02*
X183666666Y-85264819D01*
X165816666Y-81904819D02*
X165816666Y-82619104D01*
X165816666Y-82619104D02*
X165769047Y-82761961D01*
X165769047Y-82761961D02*
X165673809Y-82857200D01*
X165673809Y-82857200D02*
X165530952Y-82904819D01*
X165530952Y-82904819D02*
X165435714Y-82904819D01*
X166769047Y-81904819D02*
X166292857Y-81904819D01*
X166292857Y-81904819D02*
X166245238Y-82381009D01*
X166245238Y-82381009D02*
X166292857Y-82333390D01*
X166292857Y-82333390D02*
X166388095Y-82285771D01*
X166388095Y-82285771D02*
X166626190Y-82285771D01*
X166626190Y-82285771D02*
X166721428Y-82333390D01*
X166721428Y-82333390D02*
X166769047Y-82381009D01*
X166769047Y-82381009D02*
X166816666Y-82476247D01*
X166816666Y-82476247D02*
X166816666Y-82714342D01*
X166816666Y-82714342D02*
X166769047Y-82809580D01*
X166769047Y-82809580D02*
X166721428Y-82857200D01*
X166721428Y-82857200D02*
X166626190Y-82904819D01*
X166626190Y-82904819D02*
X166388095Y-82904819D01*
X166388095Y-82904819D02*
X166292857Y-82857200D01*
X166292857Y-82857200D02*
X166245238Y-82809580D01*
X221216666Y-81854819D02*
X221216666Y-82569104D01*
X221216666Y-82569104D02*
X221169047Y-82711961D01*
X221169047Y-82711961D02*
X221073809Y-82807200D01*
X221073809Y-82807200D02*
X220930952Y-82854819D01*
X220930952Y-82854819D02*
X220835714Y-82854819D01*
X222121428Y-82188152D02*
X222121428Y-82854819D01*
X221883333Y-81807200D02*
X221645238Y-82521485D01*
X221645238Y-82521485D02*
X222264285Y-82521485D01*
X203266666Y-72854819D02*
X203266666Y-73569104D01*
X203266666Y-73569104D02*
X203219047Y-73711961D01*
X203219047Y-73711961D02*
X203123809Y-73807200D01*
X203123809Y-73807200D02*
X202980952Y-73854819D01*
X202980952Y-73854819D02*
X202885714Y-73854819D01*
X204266666Y-73854819D02*
X203695238Y-73854819D01*
X203980952Y-73854819D02*
X203980952Y-72854819D01*
X203980952Y-72854819D02*
X203885714Y-72997676D01*
X203885714Y-72997676D02*
X203790476Y-73092914D01*
X203790476Y-73092914D02*
X203695238Y-73140533D01*
X202436666Y-79841009D02*
X202103333Y-79841009D01*
X202103333Y-80364819D02*
X202103333Y-79364819D01*
X202103333Y-79364819D02*
X202579523Y-79364819D01*
X203484285Y-80364819D02*
X202912857Y-80364819D01*
X203198571Y-80364819D02*
X203198571Y-79364819D01*
X203198571Y-79364819D02*
X203103333Y-79507676D01*
X203103333Y-79507676D02*
X203008095Y-79602914D01*
X203008095Y-79602914D02*
X202912857Y-79650533D01*
D11*
%TO.C,J3*%
X192470000Y-75100000D02*
X194090000Y-75100000D01*
X192470000Y-78800000D02*
X192470000Y-75100000D01*
X194090000Y-72240000D02*
X196800000Y-72240000D01*
X194090000Y-75100000D02*
X194090000Y-72240000D01*
X196800000Y-78800000D02*
X192470000Y-78800000D01*
X196800000Y-78800000D02*
X201130000Y-78800000D01*
X199510000Y-72240000D02*
X196800000Y-72240000D01*
X199510000Y-75100000D02*
X199510000Y-72240000D01*
X201130000Y-75100000D02*
X199510000Y-75100000D01*
X201130000Y-78800000D02*
X201130000Y-75100000D01*
X201430000Y-74800000D02*
X199510000Y-74800000D01*
X201430000Y-76950000D02*
X201430000Y-74800000D01*
%TO.C,J6*%
X186240000Y-68340000D02*
X191660000Y-68340000D01*
X186240000Y-77060000D02*
X186240000Y-68340000D01*
X187540000Y-78760000D02*
X186240000Y-77060000D01*
X187540000Y-78760000D02*
X190360000Y-78760000D01*
X190360000Y-78760000D02*
X191660000Y-77060000D01*
X191660000Y-77060000D02*
X191660000Y-68340000D01*
%TO.C,J2*%
X176720000Y-74560000D02*
X176720000Y-83240000D01*
X176720000Y-83240000D02*
X182880000Y-83240000D01*
X177015736Y-84750000D02*
X177015736Y-85350000D01*
X177015736Y-85350000D02*
X177440000Y-85050000D01*
X177440000Y-85050000D02*
X177015736Y-84750000D01*
X178400000Y-83240000D02*
X178400000Y-83690000D01*
X178400000Y-83690000D02*
X178700000Y-83690000D01*
X178700000Y-83240000D02*
X178400000Y-83240000D01*
X178700000Y-83690000D02*
X178700000Y-83240000D01*
X180900000Y-83240000D02*
X180900000Y-83690000D01*
X180900000Y-83690000D02*
X181200000Y-83690000D01*
X181200000Y-83240000D02*
X180900000Y-83240000D01*
X181200000Y-83690000D02*
X181200000Y-83240000D01*
X182880000Y-74560000D02*
X176720000Y-74560000D01*
X182880000Y-83240000D02*
X182880000Y-74560000D01*
D12*
%TO.C,J5*%
X167165000Y-83205000D02*
X167165000Y-81695000D01*
X169340000Y-78515000D02*
X172860000Y-78515000D01*
X169340000Y-86385000D02*
X172860000Y-86385000D01*
X175035000Y-83205000D02*
X175035000Y-81695000D01*
%TO.C,J4*%
X212665000Y-83205000D02*
X212665000Y-81695000D01*
X214840000Y-78515000D02*
X218360000Y-78515000D01*
X214840000Y-86385000D02*
X218360000Y-86385000D01*
X220535000Y-83205000D02*
X220535000Y-81695000D01*
D11*
%TO.C,J1*%
X205400000Y-71965736D02*
X205700000Y-72390000D01*
X205700000Y-72390000D02*
X206000000Y-71965736D01*
X206000000Y-71965736D02*
X205400000Y-71965736D01*
X207060000Y-73350000D02*
X207060000Y-73650000D01*
X207060000Y-73650000D02*
X207510000Y-73650000D01*
X207060000Y-75850000D02*
X207060000Y-76150000D01*
X207060000Y-76150000D02*
X207510000Y-76150000D01*
X207510000Y-71670000D02*
X207510000Y-77830000D01*
X207510000Y-73350000D02*
X207060000Y-73350000D01*
X207510000Y-73650000D02*
X207510000Y-73350000D01*
X207510000Y-75850000D02*
X207060000Y-75850000D01*
X207510000Y-76150000D02*
X207510000Y-75850000D01*
X207510000Y-77830000D02*
X216190000Y-77830000D01*
X216190000Y-71670000D02*
X207510000Y-71670000D01*
X216190000Y-77830000D02*
X216190000Y-71670000D01*
%TO.C,F1*%
X185590000Y-79380000D02*
X185590000Y-86320000D01*
X185590000Y-86320000D02*
X201790000Y-86320000D01*
X192090000Y-80850000D02*
X195290000Y-80850000D01*
X194440000Y-82850000D02*
X192940000Y-82850000D01*
X195290000Y-84850000D02*
X192090000Y-84850000D01*
X201790000Y-79380000D02*
X185590000Y-79380000D01*
X201790000Y-86320000D02*
X201790000Y-79380000D01*
%TD*%
M02*
