%TF.GenerationSoftware,KiCad,Pcbnew,9.0.5*%
%TF.CreationDate,2025-10-15T11:44:02-05:00*%
%TF.ProjectId,PS-LVBatteryPCB,50532d4c-5642-4617-9474-657279504342,rev?*%
%TF.SameCoordinates,Original*%
%TF.FileFunction,Copper,L2,Bot*%
%TF.FilePolarity,Positive*%
%FSLAX46Y46*%
G04 Gerber Fmt 4.6, Leading zero omitted, Abs format (unit mm)*
G04 Created by KiCad (PCBNEW 9.0.5) date 2025-10-15 11:44:02*
%MOMM*%
%LPD*%
G01*
G04 APERTURE LIST*
G04 Aperture macros list*
%AMRoundRect*
0 Rectangle with rounded corners*
0 $1 Rounding radius*
0 $2 $3 $4 $5 $6 $7 $8 $9 X,Y pos of 4 corners*
0 Add a 4 corners polygon primitive as box body*
4,1,4,$2,$3,$4,$5,$6,$7,$8,$9,$2,$3,0*
0 Add four circle primitives for the rounded corners*
1,1,$1+$1,$2,$3*
1,1,$1+$1,$4,$5*
1,1,$1+$1,$6,$7*
1,1,$1+$1,$8,$9*
0 Add four rect primitives between the rounded corners*
20,1,$1+$1,$2,$3,$4,$5,0*
20,1,$1+$1,$4,$5,$6,$7,0*
20,1,$1+$1,$6,$7,$8,$9,0*
20,1,$1+$1,$8,$9,$2,$3,0*%
%AMFreePoly0*
4,1,22,0.945671,0.830970,1.026777,0.776777,1.080970,0.695671,1.100000,0.600000,1.100000,-0.600000,1.080970,-0.695671,1.026777,-0.776777,0.945671,-0.830970,0.850000,-0.850000,-0.596447,-0.850000,-0.692118,-0.830970,-0.773224,-0.776777,-1.026777,-0.523224,-1.080970,-0.442118,-1.100000,-0.346447,-1.100000,0.600000,-1.080970,0.695671,-1.026777,0.776777,-0.945671,0.830970,-0.850000,0.850000,
0.850000,0.850000,0.945671,0.830970,0.945671,0.830970,$1*%
G04 Aperture macros list end*
%TA.AperFunction,ComponentPad*%
%ADD10FreePoly0,270.000000*%
%TD*%
%TA.AperFunction,ComponentPad*%
%ADD11O,1.700000X2.200000*%
%TD*%
%TA.AperFunction,ComponentPad*%
%ADD12R,3.000000X3.000000*%
%TD*%
%TA.AperFunction,ComponentPad*%
%ADD13C,3.000000*%
%TD*%
%TA.AperFunction,ComponentPad*%
%ADD14RoundRect,0.250000X0.600000X-0.850000X0.600000X0.850000X-0.600000X0.850000X-0.600000X-0.850000X0*%
%TD*%
%TA.AperFunction,ComponentPad*%
%ADD15C,2.850000*%
%TD*%
%TA.AperFunction,ComponentPad*%
%ADD16RoundRect,0.250000X-0.850000X-0.600000X0.850000X-0.600000X0.850000X0.600000X-0.850000X0.600000X0*%
%TD*%
%TA.AperFunction,ComponentPad*%
%ADD17O,2.200000X1.700000*%
%TD*%
%TA.AperFunction,ComponentPad*%
%ADD18C,2.780000*%
%TD*%
%TA.AperFunction,Conductor*%
%ADD19C,0.200000*%
%TD*%
G04 APERTURE END LIST*
D10*
%TO.P,J3,1,Pin_1*%
%TO.N,Net-(J1-Pin_2)*%
X199300000Y-76950000D03*
D11*
%TO.P,J3,2,Pin_2*%
%TO.N,Net-(J2-Pin_2)*%
X196800000Y-76950000D03*
%TO.P,J3,3,Pin_3*%
%TO.N,Net-(J1-Pin_1)*%
X194300000Y-76950000D03*
%TD*%
D12*
%TO.P,J6,1,Pin_1*%
%TO.N,/SUPP_FUSE+*%
X188950000Y-76050000D03*
D13*
%TO.P,J6,2,Pin_2*%
%TO.N,/SUPP_GND*%
X188950000Y-71050000D03*
%TD*%
D14*
%TO.P,J2,1,Pin_1*%
%TO.N,Net-(J1-Pin_1)*%
X178550000Y-85050000D03*
D11*
%TO.P,J2,2,Pin_2*%
%TO.N,Net-(J2-Pin_2)*%
X181050000Y-85050000D03*
%TD*%
D15*
%TO.P,J5,1,Pin_1*%
%TO.N,/SUPP_GND*%
X167595000Y-84950000D03*
X174605000Y-84950000D03*
X167595000Y-79950000D03*
X174605000Y-79950000D03*
%TD*%
%TO.P,J4,1,Pin_1*%
%TO.N,/SUPP+*%
X213095000Y-84950000D03*
X220105000Y-84950000D03*
X213095000Y-79950000D03*
X220105000Y-79950000D03*
%TD*%
D16*
%TO.P,J1,1,Pin_1*%
%TO.N,Net-(J1-Pin_1)*%
X205700000Y-73500000D03*
D17*
%TO.P,J1,2,Pin_2*%
%TO.N,Net-(J1-Pin_2)*%
X205700000Y-76000000D03*
%TD*%
D18*
%TO.P,F1,1*%
%TO.N,/SUPP+*%
X198650000Y-84550000D03*
X198650000Y-81150000D03*
%TO.P,F1,2*%
%TO.N,/SUPP_FUSE+*%
X188730000Y-84550000D03*
X188730000Y-81150000D03*
%TD*%
D19*
%TO.N,Net-(J1-Pin_1)*%
X179150000Y-85050000D02*
X181340000Y-82860000D01*
X181340000Y-82860000D02*
X189430000Y-82860000D01*
X178550000Y-85090000D02*
X179110000Y-85090000D01*
X178550000Y-85050000D02*
X179150000Y-85050000D01*
X194300000Y-77990000D02*
X194300000Y-76950000D01*
X189430000Y-82860000D02*
X194300000Y-77990000D01*
%TO.N,Net-(J2-Pin_2)*%
X182340570Y-86340570D02*
X187108501Y-86341024D01*
X181050000Y-85050000D02*
X182340570Y-86340570D01*
X187118597Y-86331480D02*
X187686085Y-86347415D01*
X187108501Y-86341024D02*
X187118597Y-86331480D01*
X194701000Y-80979000D02*
X196800000Y-78880000D01*
X194701000Y-80999000D02*
X194701000Y-80979000D01*
X187741204Y-86360000D02*
X189320000Y-86360000D01*
X187686085Y-86347415D02*
X187741204Y-86360000D01*
X181050000Y-84200000D02*
X181050000Y-85090000D01*
X192439000Y-83261000D02*
X194701000Y-80999000D01*
X192419000Y-83261000D02*
X192439000Y-83261000D01*
X196800000Y-78880000D02*
X196800000Y-76950000D01*
X189320000Y-86360000D02*
X192419000Y-83261000D01*
%TD*%
%TA.AperFunction,Conductor*%
%TO.N,/SUPP_GND*%
G36*
X193992697Y-61168341D02*
G01*
X194006498Y-61169896D01*
X194313339Y-61222031D01*
X194326883Y-61225122D01*
X194625952Y-61311282D01*
X194639077Y-61315874D01*
X194926618Y-61434978D01*
X194939132Y-61441004D01*
X195211547Y-61591563D01*
X195223303Y-61598950D01*
X195477129Y-61779050D01*
X195487989Y-61787709D01*
X195683289Y-61962240D01*
X195720063Y-61995103D01*
X195729896Y-62004936D01*
X195937285Y-62237004D01*
X195945951Y-62247872D01*
X196049053Y-62393181D01*
X196126043Y-62501687D01*
X196133442Y-62513461D01*
X196283991Y-62785860D01*
X196290024Y-62798388D01*
X196409124Y-63085921D01*
X196413717Y-63099047D01*
X196499875Y-63398110D01*
X196502969Y-63411666D01*
X196555102Y-63718493D01*
X196556659Y-63732311D01*
X196574305Y-64046527D01*
X196574500Y-64053480D01*
X196574500Y-64957277D01*
X196609716Y-65269827D01*
X196609718Y-65269843D01*
X196679710Y-65576499D01*
X196679711Y-65576501D01*
X196783598Y-65873395D01*
X196920072Y-66156786D01*
X196920074Y-66156789D01*
X197087423Y-66423123D01*
X197283539Y-66669044D01*
X197505956Y-66891461D01*
X197751877Y-67087577D01*
X198018211Y-67254926D01*
X198301606Y-67391402D01*
X198598500Y-67495289D01*
X198905160Y-67565282D01*
X199217723Y-67600499D01*
X199217724Y-67600500D01*
X199217727Y-67600500D01*
X199335438Y-67600500D01*
X199410438Y-67600500D01*
X200902405Y-67600500D01*
X200943907Y-67600500D01*
X200956061Y-67601097D01*
X201074317Y-67612744D01*
X201098145Y-67617483D01*
X201206005Y-67650202D01*
X201228453Y-67659501D01*
X201327849Y-67712629D01*
X201348059Y-67726133D01*
X201435179Y-67797630D01*
X201452369Y-67814820D01*
X201523866Y-67901940D01*
X201537370Y-67922150D01*
X201590495Y-68021538D01*
X201599798Y-68043997D01*
X201632514Y-68151848D01*
X201637256Y-68175688D01*
X201648903Y-68293937D01*
X201649500Y-68306092D01*
X201649500Y-70302351D01*
X201681522Y-70504534D01*
X201744781Y-70699223D01*
X201837715Y-70881613D01*
X201958028Y-71047213D01*
X202102786Y-71191971D01*
X202216574Y-71274641D01*
X202268390Y-71312287D01*
X202384607Y-71371503D01*
X202450776Y-71405218D01*
X202450778Y-71405218D01*
X202450781Y-71405220D01*
X202555137Y-71439127D01*
X202645465Y-71468477D01*
X202746557Y-71484488D01*
X202847648Y-71500500D01*
X202910438Y-71500500D01*
X216225500Y-71500500D01*
X216292539Y-71520185D01*
X216338294Y-71572989D01*
X216349500Y-71624500D01*
X216349500Y-78239562D01*
X216355284Y-78261147D01*
X216369979Y-78315990D01*
X216369982Y-78315995D01*
X216409535Y-78384504D01*
X216409539Y-78384509D01*
X216409540Y-78384511D01*
X216465489Y-78440460D01*
X216465491Y-78440461D01*
X216465495Y-78440464D01*
X216534004Y-78480017D01*
X216534011Y-78480021D01*
X216610438Y-78500500D01*
X216689562Y-78500500D01*
X218538755Y-78500500D01*
X218605794Y-78520185D01*
X218651549Y-78572989D01*
X218661493Y-78642147D01*
X218637130Y-78699987D01*
X218500568Y-78877954D01*
X218500566Y-78877958D01*
X218374372Y-79096535D01*
X218374363Y-79096552D01*
X218277773Y-79329741D01*
X218212446Y-79573548D01*
X218179500Y-79823788D01*
X218179500Y-80076211D01*
X218212446Y-80326451D01*
X218277773Y-80570258D01*
X218374363Y-80803447D01*
X218374372Y-80803464D01*
X218500564Y-81022038D01*
X218500568Y-81022045D01*
X218654227Y-81222294D01*
X218654235Y-81222303D01*
X218832697Y-81400765D01*
X218832705Y-81400772D01*
X219032954Y-81554431D01*
X219032958Y-81554433D01*
X219251535Y-81680627D01*
X219251552Y-81680636D01*
X219380758Y-81734154D01*
X219484740Y-81777226D01*
X219728548Y-81842554D01*
X219978796Y-81875500D01*
X219978803Y-81875500D01*
X220231197Y-81875500D01*
X220231204Y-81875500D01*
X220481452Y-81842554D01*
X220725260Y-81777226D01*
X220958454Y-81680633D01*
X221177041Y-81554433D01*
X221177045Y-81554431D01*
X221236190Y-81509047D01*
X221377294Y-81400773D01*
X221377298Y-81400768D01*
X221377303Y-81400765D01*
X221555765Y-81222303D01*
X221555768Y-81222298D01*
X221555773Y-81222294D01*
X221685891Y-81052722D01*
X221709431Y-81022045D01*
X221709436Y-81022038D01*
X221835627Y-80803464D01*
X221835633Y-80803454D01*
X221932226Y-80570260D01*
X221997554Y-80326452D01*
X222030500Y-80076204D01*
X222030500Y-79823796D01*
X221997554Y-79573548D01*
X221976594Y-79495324D01*
X221978257Y-79425475D01*
X222017420Y-79367613D01*
X222081648Y-79340109D01*
X222150550Y-79351696D01*
X222164160Y-79359859D01*
X222164234Y-79359740D01*
X222168381Y-79362281D01*
X222168388Y-79362284D01*
X222168390Y-79362286D01*
X222350782Y-79455219D01*
X222545466Y-79518476D01*
X222747648Y-79550499D01*
X222810438Y-79550499D01*
X224460437Y-79550499D01*
X225202405Y-79550499D01*
X225246518Y-79550499D01*
X225253470Y-79550694D01*
X225293114Y-79552920D01*
X225567696Y-79568340D01*
X225581495Y-79569894D01*
X225888331Y-79622028D01*
X225901886Y-79625121D01*
X225970820Y-79644981D01*
X226200955Y-79711282D01*
X226214079Y-79715875D01*
X226445134Y-79811580D01*
X226474640Y-79823802D01*
X226501610Y-79834973D01*
X226514140Y-79841007D01*
X226786532Y-79991554D01*
X226798305Y-79998951D01*
X227052138Y-80179054D01*
X227063002Y-80187719D01*
X227074187Y-80197714D01*
X227295063Y-80395103D01*
X227304895Y-80404935D01*
X227512276Y-80636992D01*
X227520947Y-80647864D01*
X227701047Y-80901693D01*
X227708444Y-80913466D01*
X227858991Y-81185858D01*
X227865025Y-81198388D01*
X227984123Y-81485919D01*
X227988716Y-81499043D01*
X228074876Y-81798109D01*
X228077970Y-81811666D01*
X228130102Y-82118492D01*
X228131659Y-82132310D01*
X228149109Y-82443028D01*
X228149109Y-82456934D01*
X228131658Y-82767688D01*
X228130101Y-82781506D01*
X228077969Y-83088331D01*
X228074875Y-83101888D01*
X227988715Y-83400954D01*
X227984122Y-83414078D01*
X227865024Y-83701609D01*
X227858990Y-83714139D01*
X227708443Y-83986531D01*
X227701046Y-83998304D01*
X227520946Y-84252133D01*
X227512275Y-84263005D01*
X227304894Y-84495062D01*
X227295062Y-84504894D01*
X227063005Y-84712275D01*
X227052133Y-84720946D01*
X226798304Y-84901046D01*
X226786531Y-84908443D01*
X226514139Y-85058990D01*
X226501609Y-85065024D01*
X226214078Y-85184122D01*
X226200954Y-85188715D01*
X225901888Y-85274875D01*
X225888331Y-85277969D01*
X225581506Y-85330101D01*
X225567688Y-85331658D01*
X225253471Y-85349304D01*
X225246518Y-85349499D01*
X224460437Y-85349499D01*
X224460436Y-85349499D01*
X222810438Y-85349500D01*
X222747648Y-85349500D01*
X222723329Y-85353351D01*
X222545465Y-85381522D01*
X222350776Y-85444781D01*
X222168381Y-85537717D01*
X222164234Y-85540259D01*
X222163540Y-85539126D01*
X222103433Y-85560565D01*
X222035381Y-85544731D01*
X221986692Y-85494619D01*
X221972825Y-85426140D01*
X221976591Y-85404683D01*
X221997554Y-85326452D01*
X222030500Y-85076204D01*
X222030500Y-84823796D01*
X221997554Y-84573548D01*
X221932226Y-84329740D01*
X221889154Y-84225758D01*
X221835636Y-84096552D01*
X221835627Y-84096535D01*
X221709433Y-83877958D01*
X221709431Y-83877954D01*
X221579053Y-83708045D01*
X221555773Y-83677706D01*
X221555772Y-83677705D01*
X221555765Y-83677697D01*
X221377303Y-83499235D01*
X221377294Y-83499227D01*
X221177045Y-83345568D01*
X221177041Y-83345566D01*
X220958464Y-83219372D01*
X220958447Y-83219363D01*
X220725258Y-83122773D01*
X220570690Y-83081357D01*
X220481452Y-83057446D01*
X220450171Y-83053327D01*
X220231211Y-83024500D01*
X220231204Y-83024500D01*
X219978796Y-83024500D01*
X219978788Y-83024500D01*
X219728548Y-83057446D01*
X219484741Y-83122773D01*
X219251552Y-83219363D01*
X219251535Y-83219372D01*
X219032958Y-83345566D01*
X219032954Y-83345568D01*
X218832705Y-83499227D01*
X218654227Y-83677705D01*
X218500568Y-83877954D01*
X218500566Y-83877958D01*
X218374372Y-84096535D01*
X218374363Y-84096552D01*
X218277773Y-84329741D01*
X218212446Y-84573548D01*
X218179500Y-84823788D01*
X218179500Y-85076211D01*
X218206063Y-85277969D01*
X218212446Y-85326452D01*
X218218622Y-85349500D01*
X218277773Y-85570258D01*
X218374363Y-85803447D01*
X218374372Y-85803464D01*
X218500566Y-86022041D01*
X218500568Y-86022045D01*
X218654227Y-86222294D01*
X218654235Y-86222303D01*
X218673096Y-86241164D01*
X218706581Y-86302487D01*
X218701597Y-86372179D01*
X218659725Y-86428112D01*
X218594261Y-86452529D01*
X218585352Y-86452845D01*
X214616532Y-86450834D01*
X214549503Y-86431115D01*
X214503775Y-86378288D01*
X214493866Y-86309125D01*
X214522923Y-86245584D01*
X214528916Y-86239151D01*
X214545766Y-86222301D01*
X214545773Y-86222294D01*
X214675834Y-86052797D01*
X214699431Y-86022045D01*
X214699433Y-86022041D01*
X214825627Y-85803464D01*
X214825633Y-85803454D01*
X214922226Y-85570260D01*
X214987554Y-85326452D01*
X215020500Y-85076204D01*
X215020500Y-84823796D01*
X214987554Y-84573548D01*
X214922226Y-84329740D01*
X214879154Y-84225758D01*
X214825636Y-84096552D01*
X214825627Y-84096535D01*
X214699433Y-83877958D01*
X214699431Y-83877954D01*
X214569053Y-83708045D01*
X214545773Y-83677706D01*
X214545772Y-83677705D01*
X214545765Y-83677697D01*
X214367303Y-83499235D01*
X214367294Y-83499227D01*
X214167045Y-83345568D01*
X214167041Y-83345566D01*
X213948464Y-83219372D01*
X213948447Y-83219363D01*
X213715258Y-83122773D01*
X213560690Y-83081357D01*
X213471452Y-83057446D01*
X213440171Y-83053327D01*
X213221211Y-83024500D01*
X213221204Y-83024500D01*
X212968796Y-83024500D01*
X212968788Y-83024500D01*
X212718548Y-83057446D01*
X212474741Y-83122773D01*
X212241552Y-83219363D01*
X212241535Y-83219372D01*
X212022958Y-83345566D01*
X212022954Y-83345568D01*
X211822705Y-83499227D01*
X211644227Y-83677705D01*
X211490568Y-83877954D01*
X211490566Y-83877958D01*
X211364372Y-84096535D01*
X211364363Y-84096552D01*
X211267773Y-84329741D01*
X211202446Y-84573548D01*
X211169500Y-84823788D01*
X211169500Y-85076211D01*
X211196063Y-85277969D01*
X211202446Y-85326452D01*
X211208622Y-85349500D01*
X211267773Y-85570258D01*
X211364363Y-85803447D01*
X211364372Y-85803464D01*
X211490566Y-86022041D01*
X211490568Y-86022045D01*
X211644227Y-86222294D01*
X211644235Y-86222303D01*
X211659542Y-86237610D01*
X211693027Y-86298933D01*
X211688043Y-86368625D01*
X211646171Y-86424558D01*
X211580707Y-86448975D01*
X211571798Y-86449291D01*
X200124368Y-86443491D01*
X200076796Y-86443467D01*
X200076779Y-86443467D01*
X200076773Y-86443467D01*
X200037211Y-86443447D01*
X200037106Y-86443474D01*
X200029071Y-86443476D01*
X200029056Y-86443471D01*
X200028989Y-86443476D01*
X199909523Y-86443418D01*
X199904750Y-86443416D01*
X199904749Y-86443416D01*
X199904743Y-86443416D01*
X199568226Y-86476398D01*
X199499586Y-86463346D01*
X199448899Y-86415257D01*
X199432257Y-86347398D01*
X199454944Y-86281314D01*
X199494131Y-86245602D01*
X199702559Y-86125266D01*
X199899168Y-85974403D01*
X200074403Y-85799168D01*
X200225266Y-85602559D01*
X200349176Y-85387941D01*
X200444012Y-85158985D01*
X200508153Y-84919610D01*
X200540500Y-84673910D01*
X200540500Y-84426090D01*
X200508153Y-84180390D01*
X200444012Y-83941015D01*
X200417891Y-83877954D01*
X200349180Y-83712068D01*
X200349172Y-83712051D01*
X200225270Y-83497448D01*
X200225266Y-83497441D01*
X200164036Y-83417644D01*
X200074404Y-83300833D01*
X200074398Y-83300826D01*
X199899173Y-83125601D01*
X199899166Y-83125595D01*
X199702567Y-82974740D01*
X199702565Y-82974739D01*
X199702559Y-82974734D01*
X199672512Y-82957386D01*
X199624297Y-82906820D01*
X199611074Y-82838213D01*
X199637042Y-82773348D01*
X199672513Y-82742613D01*
X199674245Y-82741613D01*
X199702559Y-82725266D01*
X199899168Y-82574403D01*
X200074403Y-82399168D01*
X200128662Y-82328456D01*
X223395500Y-82328456D01*
X223395500Y-82571543D01*
X223395501Y-82571559D01*
X223427230Y-82812569D01*
X223490149Y-83047386D01*
X223583175Y-83271972D01*
X223583182Y-83271987D01*
X223704730Y-83482516D01*
X223852722Y-83675380D01*
X223852730Y-83675389D01*
X224024611Y-83847270D01*
X224024619Y-83847277D01*
X224217483Y-83995269D01*
X224428012Y-84116817D01*
X224428027Y-84116824D01*
X224508100Y-84149991D01*
X224652612Y-84209850D01*
X224887429Y-84272769D01*
X225128450Y-84304500D01*
X225128457Y-84304500D01*
X225371543Y-84304500D01*
X225371550Y-84304500D01*
X225612571Y-84272769D01*
X225847388Y-84209850D01*
X226071984Y-84116819D01*
X226282516Y-83995269D01*
X226475380Y-83847278D01*
X226475384Y-83847273D01*
X226475389Y-83847270D01*
X226647270Y-83675389D01*
X226647273Y-83675384D01*
X226647278Y-83675380D01*
X226795269Y-83482516D01*
X226916819Y-83271984D01*
X227009850Y-83047388D01*
X227072769Y-82812571D01*
X227104500Y-82571550D01*
X227104500Y-82328450D01*
X227072769Y-82087429D01*
X227009850Y-81852612D01*
X226938614Y-81680633D01*
X226916824Y-81628027D01*
X226916817Y-81628012D01*
X226795269Y-81417483D01*
X226647277Y-81224619D01*
X226647270Y-81224611D01*
X226475389Y-81052730D01*
X226475380Y-81052722D01*
X226282516Y-80904730D01*
X226071987Y-80783182D01*
X226071972Y-80783175D01*
X225847386Y-80690149D01*
X225612569Y-80627230D01*
X225371559Y-80595501D01*
X225371556Y-80595500D01*
X225371550Y-80595500D01*
X225128450Y-80595500D01*
X225128444Y-80595500D01*
X225128440Y-80595501D01*
X224887430Y-80627230D01*
X224652613Y-80690149D01*
X224428027Y-80783175D01*
X224428012Y-80783182D01*
X224217483Y-80904730D01*
X224024619Y-81052722D01*
X223852722Y-81224619D01*
X223704730Y-81417483D01*
X223583182Y-81628012D01*
X223583175Y-81628027D01*
X223490149Y-81852613D01*
X223427230Y-82087430D01*
X223395501Y-82328440D01*
X223395500Y-82328456D01*
X200128662Y-82328456D01*
X200181575Y-82259499D01*
X200189704Y-82248905D01*
X200201801Y-82233138D01*
X200225266Y-82202559D01*
X200349176Y-81987941D01*
X200444012Y-81758985D01*
X200508153Y-81519610D01*
X200540500Y-81273910D01*
X200540500Y-81026090D01*
X200508153Y-80780390D01*
X200444012Y-80541015D01*
X200387646Y-80404935D01*
X200349180Y-80312068D01*
X200349172Y-80312051D01*
X200225270Y-80097448D01*
X200225266Y-80097441D01*
X200146601Y-79994922D01*
X200074402Y-79900830D01*
X199997360Y-79823788D01*
X211169500Y-79823788D01*
X211169500Y-80076211D01*
X211202446Y-80326451D01*
X211267773Y-80570258D01*
X211364363Y-80803447D01*
X211364372Y-80803464D01*
X211490564Y-81022038D01*
X211490568Y-81022045D01*
X211644227Y-81222294D01*
X211644235Y-81222303D01*
X211822697Y-81400765D01*
X211822705Y-81400772D01*
X212022954Y-81554431D01*
X212022958Y-81554433D01*
X212241535Y-81680627D01*
X212241552Y-81680636D01*
X212370758Y-81734154D01*
X212474740Y-81777226D01*
X212718548Y-81842554D01*
X212968796Y-81875500D01*
X212968803Y-81875500D01*
X213221197Y-81875500D01*
X213221204Y-81875500D01*
X213471452Y-81842554D01*
X213715260Y-81777226D01*
X213948454Y-81680633D01*
X214167041Y-81554433D01*
X214167045Y-81554431D01*
X214226190Y-81509047D01*
X214367294Y-81400773D01*
X214367298Y-81400768D01*
X214367303Y-81400765D01*
X214545765Y-81222303D01*
X214545768Y-81222298D01*
X214545773Y-81222294D01*
X214675891Y-81052722D01*
X214699431Y-81022045D01*
X214699436Y-81022038D01*
X214825627Y-80803464D01*
X214825633Y-80803454D01*
X214922226Y-80570260D01*
X214987554Y-80326452D01*
X215020500Y-80076204D01*
X215020500Y-79823796D01*
X214987554Y-79573548D01*
X214922226Y-79329740D01*
X214847836Y-79150148D01*
X214825636Y-79096552D01*
X214825627Y-79096535D01*
X214699433Y-78877958D01*
X214699431Y-78877954D01*
X214545772Y-78677705D01*
X214545765Y-78677697D01*
X214367303Y-78499235D01*
X214367294Y-78499227D01*
X214167045Y-78345568D01*
X214167041Y-78345566D01*
X213948464Y-78219372D01*
X213948447Y-78219363D01*
X213715258Y-78122773D01*
X213554849Y-78079792D01*
X213471452Y-78057446D01*
X213440171Y-78053327D01*
X213221211Y-78024500D01*
X213221204Y-78024500D01*
X212968796Y-78024500D01*
X212968788Y-78024500D01*
X212718548Y-78057446D01*
X212474741Y-78122773D01*
X212241552Y-78219363D01*
X212241535Y-78219372D01*
X212022958Y-78345566D01*
X212022954Y-78345568D01*
X211822705Y-78499227D01*
X211644227Y-78677705D01*
X211490568Y-78877954D01*
X211490566Y-78877958D01*
X211364372Y-79096535D01*
X211364363Y-79096552D01*
X211267773Y-79329741D01*
X211202446Y-79573548D01*
X211169500Y-79823788D01*
X199997360Y-79823788D01*
X199899173Y-79725601D01*
X199899166Y-79725595D01*
X199702567Y-79574740D01*
X199702565Y-79574738D01*
X199702559Y-79574734D01*
X199702554Y-79574731D01*
X199702551Y-79574729D01*
X199487948Y-79450827D01*
X199487931Y-79450819D01*
X199258992Y-79355990D01*
X199161030Y-79329741D01*
X199019610Y-79291847D01*
X199019609Y-79291846D01*
X199019606Y-79291846D01*
X198773919Y-79259501D01*
X198773916Y-79259500D01*
X198773910Y-79259500D01*
X198526090Y-79259500D01*
X198526084Y-79259500D01*
X198526080Y-79259501D01*
X198280393Y-79291846D01*
X198041007Y-79355990D01*
X197812068Y-79450819D01*
X197812051Y-79450827D01*
X197597448Y-79574729D01*
X197597432Y-79574740D01*
X197400833Y-79725595D01*
X197400826Y-79725601D01*
X197225601Y-79900826D01*
X197225595Y-79900833D01*
X197074740Y-80097432D01*
X197074729Y-80097448D01*
X196950827Y-80312051D01*
X196950819Y-80312068D01*
X196855990Y-80541007D01*
X196791846Y-80780393D01*
X196759501Y-81026080D01*
X196759500Y-81026096D01*
X196759500Y-81273903D01*
X196759501Y-81273919D01*
X196788258Y-81492355D01*
X196791847Y-81519610D01*
X196834993Y-81680633D01*
X196855990Y-81758992D01*
X196950819Y-81987931D01*
X196950827Y-81987948D01*
X197074729Y-82202551D01*
X197074740Y-82202567D01*
X197225595Y-82399166D01*
X197225601Y-82399173D01*
X197400826Y-82574398D01*
X197400832Y-82574403D01*
X197597441Y-82725266D01*
X197597452Y-82725272D01*
X197597453Y-82725273D01*
X197627487Y-82742614D01*
X197675702Y-82793181D01*
X197688924Y-82861788D01*
X197662956Y-82926653D01*
X197627487Y-82957386D01*
X197597453Y-82974726D01*
X197597432Y-82974740D01*
X197400833Y-83125595D01*
X197400826Y-83125601D01*
X197225601Y-83300826D01*
X197225595Y-83300833D01*
X197074740Y-83497432D01*
X197074729Y-83497448D01*
X196950827Y-83712051D01*
X196950819Y-83712068D01*
X196855990Y-83941007D01*
X196791846Y-84180393D01*
X196759501Y-84426080D01*
X196759500Y-84426096D01*
X196759500Y-84673903D01*
X196759501Y-84673919D01*
X196790376Y-84908443D01*
X196791847Y-84919610D01*
X196833490Y-85075024D01*
X196855990Y-85158992D01*
X196950819Y-85387931D01*
X196950827Y-85387948D01*
X197074729Y-85602551D01*
X197074740Y-85602567D01*
X197225595Y-85799166D01*
X197225601Y-85799173D01*
X197400826Y-85974398D01*
X197400833Y-85974404D01*
X197443621Y-86007236D01*
X197597441Y-86125266D01*
X197597448Y-86125270D01*
X197812051Y-86249172D01*
X197812056Y-86249174D01*
X197812059Y-86249176D01*
X197812063Y-86249177D01*
X197812068Y-86249180D01*
X198041007Y-86344009D01*
X198041009Y-86344009D01*
X198041015Y-86344012D01*
X198280390Y-86408153D01*
X198526090Y-86440500D01*
X198526097Y-86440500D01*
X198762646Y-86440500D01*
X198829685Y-86460185D01*
X198875440Y-86512989D01*
X198885384Y-86582147D01*
X198856359Y-86645703D01*
X198810055Y-86679079D01*
X198577712Y-86775213D01*
X198577702Y-86775218D01*
X198274228Y-86937291D01*
X198274214Y-86937299D01*
X197988099Y-87128343D01*
X197988089Y-87128350D01*
X197722087Y-87346525D01*
X197478739Y-87589747D01*
X197260424Y-87855640D01*
X197069223Y-88141673D01*
X197069221Y-88141676D01*
X196939254Y-88384731D01*
X196906993Y-88445063D01*
X196775915Y-88761395D01*
X196775289Y-88762905D01*
X196775285Y-88762915D01*
X196675387Y-89092114D01*
X196675385Y-89092120D01*
X196675385Y-89092123D01*
X196634641Y-89296880D01*
X196608239Y-89429563D01*
X196574503Y-89771936D01*
X196574500Y-89904436D01*
X196574500Y-89943965D01*
X196574499Y-89976535D01*
X196574304Y-89983484D01*
X196556659Y-90297688D01*
X196555102Y-90311506D01*
X196502969Y-90618333D01*
X196499875Y-90631889D01*
X196413717Y-90930952D01*
X196409124Y-90944078D01*
X196290024Y-91231611D01*
X196283991Y-91244139D01*
X196133442Y-91516538D01*
X196126043Y-91528312D01*
X195945954Y-91782123D01*
X195937285Y-91792995D01*
X195729896Y-92025063D01*
X195720063Y-92034896D01*
X195487995Y-92242285D01*
X195477123Y-92250954D01*
X195223312Y-92431043D01*
X195211538Y-92438442D01*
X194939139Y-92588991D01*
X194926611Y-92595024D01*
X194639078Y-92714124D01*
X194625952Y-92718717D01*
X194326889Y-92804875D01*
X194313333Y-92807969D01*
X194006506Y-92860102D01*
X193992688Y-92861659D01*
X193681953Y-92879109D01*
X193668047Y-92879109D01*
X193357311Y-92861659D01*
X193343493Y-92860102D01*
X193036666Y-92807969D01*
X193023110Y-92804875D01*
X192724047Y-92718717D01*
X192710921Y-92714124D01*
X192423388Y-92595024D01*
X192410860Y-92588991D01*
X192388853Y-92576828D01*
X192138457Y-92438439D01*
X192126692Y-92431046D01*
X191872872Y-92250951D01*
X191862004Y-92242285D01*
X191629936Y-92034896D01*
X191620103Y-92025063D01*
X191412714Y-91792995D01*
X191404050Y-91782129D01*
X191223950Y-91528303D01*
X191216563Y-91516547D01*
X191066004Y-91244132D01*
X191059978Y-91231618D01*
X190940874Y-90944077D01*
X190936282Y-90930952D01*
X190907653Y-90831578D01*
X190850122Y-90631883D01*
X190847030Y-90618333D01*
X190831578Y-90527388D01*
X190794896Y-90311498D01*
X190793341Y-90297697D01*
X190775754Y-89984541D01*
X190775560Y-89977616D01*
X190775559Y-89932405D01*
X190775558Y-89808456D01*
X191810500Y-89808456D01*
X191810500Y-90051543D01*
X191810501Y-90051559D01*
X191842230Y-90292569D01*
X191905149Y-90527386D01*
X191998175Y-90751972D01*
X191998182Y-90751987D01*
X192119730Y-90962516D01*
X192267722Y-91155380D01*
X192267730Y-91155389D01*
X192439611Y-91327270D01*
X192439619Y-91327277D01*
X192632483Y-91475269D01*
X192843012Y-91596817D01*
X192843027Y-91596824D01*
X192959171Y-91644932D01*
X193067612Y-91689850D01*
X193302429Y-91752769D01*
X193543450Y-91784500D01*
X193543457Y-91784500D01*
X193786543Y-91784500D01*
X193786550Y-91784500D01*
X194027571Y-91752769D01*
X194262388Y-91689850D01*
X194486984Y-91596819D01*
X194697516Y-91475269D01*
X194890380Y-91327278D01*
X194890384Y-91327273D01*
X194890389Y-91327270D01*
X195062270Y-91155389D01*
X195062273Y-91155384D01*
X195062278Y-91155380D01*
X195210269Y-90962516D01*
X195331819Y-90751984D01*
X195424850Y-90527388D01*
X195487769Y-90292571D01*
X195519500Y-90051550D01*
X195519500Y-89808450D01*
X195487769Y-89567429D01*
X195424850Y-89332612D01*
X195331819Y-89108016D01*
X195331817Y-89108012D01*
X195210269Y-88897483D01*
X195062277Y-88704619D01*
X195062270Y-88704611D01*
X194890389Y-88532730D01*
X194890380Y-88532722D01*
X194697516Y-88384730D01*
X194486987Y-88263182D01*
X194486972Y-88263175D01*
X194262386Y-88170149D01*
X194027569Y-88107230D01*
X193786559Y-88075501D01*
X193786556Y-88075500D01*
X193786550Y-88075500D01*
X193543450Y-88075500D01*
X193543444Y-88075500D01*
X193543440Y-88075501D01*
X193302430Y-88107230D01*
X193067613Y-88170149D01*
X192843027Y-88263175D01*
X192843012Y-88263182D01*
X192632483Y-88384730D01*
X192439619Y-88532722D01*
X192267722Y-88704619D01*
X192119730Y-88897483D01*
X191998182Y-89108012D01*
X191998175Y-89108027D01*
X191905149Y-89332613D01*
X191842230Y-89567430D01*
X191810501Y-89808440D01*
X191810500Y-89808456D01*
X190775558Y-89808456D01*
X190775558Y-89770075D01*
X190741844Y-89427814D01*
X190674747Y-89090504D01*
X190574914Y-88761395D01*
X190443305Y-88443655D01*
X190346845Y-88263182D01*
X190281194Y-88140351D01*
X190259064Y-88107230D01*
X190090125Y-87854381D01*
X189871954Y-87588522D01*
X189871952Y-87588520D01*
X189871948Y-87588515D01*
X189628778Y-87345328D01*
X189628768Y-87345319D01*
X189405360Y-87161956D01*
X189402805Y-87158205D01*
X189398767Y-87156141D01*
X189383318Y-87129593D01*
X189366028Y-87104208D01*
X189365906Y-87099674D01*
X189363625Y-87095753D01*
X189364981Y-87065065D01*
X189364161Y-87034363D01*
X189366510Y-87030482D01*
X189366711Y-87025951D01*
X189384443Y-87000867D01*
X189400351Y-86974597D01*
X189405157Y-86971567D01*
X189407044Y-86968898D01*
X189418629Y-86963073D01*
X189437549Y-86951147D01*
X189444589Y-86948300D01*
X189551785Y-86919577D01*
X189628762Y-86875134D01*
X189636264Y-86870802D01*
X189636268Y-86870801D01*
X189688709Y-86840524D01*
X189688708Y-86840524D01*
X189688716Y-86840520D01*
X189800520Y-86728716D01*
X189800520Y-86728714D01*
X189810724Y-86718511D01*
X189810728Y-86718506D01*
X192748865Y-83780368D01*
X192754120Y-83775412D01*
X192763569Y-83767006D01*
X192807716Y-83741520D01*
X192919520Y-83629716D01*
X192919521Y-83629713D01*
X195069713Y-81479521D01*
X195069716Y-81479520D01*
X195181520Y-81367716D01*
X195200681Y-81334526D01*
X195220381Y-81308852D01*
X197158506Y-79370728D01*
X197158511Y-79370724D01*
X197168714Y-79360520D01*
X197168716Y-79360520D01*
X197280520Y-79248716D01*
X197353751Y-79121875D01*
X197359577Y-79111785D01*
X197400500Y-78959058D01*
X197400500Y-78800943D01*
X197400500Y-78485718D01*
X197420185Y-78418679D01*
X197468207Y-78375233D01*
X197507815Y-78355052D01*
X197507815Y-78355051D01*
X197507816Y-78355051D01*
X197679792Y-78230104D01*
X197819025Y-78090870D01*
X197880344Y-78057388D01*
X197950036Y-78062372D01*
X198005970Y-78104243D01*
X198018559Y-78125035D01*
X198021838Y-78131888D01*
X198044103Y-78178424D01*
X198044104Y-78178426D01*
X198044105Y-78178427D01*
X198099375Y-78261145D01*
X198099377Y-78261148D01*
X198099380Y-78261152D01*
X198131809Y-78304473D01*
X198238848Y-78400620D01*
X198298470Y-78440458D01*
X198321576Y-78455897D01*
X198368112Y-78483508D01*
X198368113Y-78483509D01*
X198503789Y-78531374D01*
X198503791Y-78531374D01*
X198503796Y-78531376D01*
X198601380Y-78550787D01*
X198700000Y-78560500D01*
X198700002Y-78560500D01*
X199899998Y-78560500D01*
X199900000Y-78560500D01*
X199998620Y-78550787D01*
X200096204Y-78531376D01*
X200148634Y-78517994D01*
X200278424Y-78455897D01*
X200361152Y-78400620D01*
X200404473Y-78368191D01*
X200500620Y-78261152D01*
X200555897Y-78178424D01*
X200583508Y-78131888D01*
X200584655Y-78128639D01*
X200631374Y-77996210D01*
X200631374Y-77996209D01*
X200631376Y-77996204D01*
X200650787Y-77898620D01*
X200660500Y-77800000D01*
X200660500Y-76100000D01*
X200650787Y-76001380D01*
X200631376Y-75903796D01*
X200628802Y-75893713D01*
X200617995Y-75851371D01*
X200617994Y-75851367D01*
X200617994Y-75851366D01*
X200555897Y-75721576D01*
X200500620Y-75638848D01*
X200468191Y-75595527D01*
X200361152Y-75499380D01*
X200284921Y-75448444D01*
X200278423Y-75444102D01*
X200231887Y-75416491D01*
X200231886Y-75416490D01*
X200096210Y-75368625D01*
X200096204Y-75368624D01*
X200048065Y-75359048D01*
X199998616Y-75349212D01*
X199924188Y-75341882D01*
X199900000Y-75339500D01*
X198999833Y-75339500D01*
X198932794Y-75319815D01*
X198887039Y-75267011D01*
X198885272Y-75262953D01*
X198851558Y-75181560D01*
X198752569Y-75033412D01*
X198626587Y-74907430D01*
X198525668Y-74839999D01*
X198478441Y-74808443D01*
X198313833Y-74740260D01*
X198313827Y-74740258D01*
X198139087Y-74705500D01*
X198139085Y-74705500D01*
X197960915Y-74705500D01*
X197960913Y-74705500D01*
X197786172Y-74740258D01*
X197786166Y-74740260D01*
X197621560Y-74808442D01*
X197473412Y-74907430D01*
X197347430Y-75033412D01*
X197248441Y-75181561D01*
X197199505Y-75299704D01*
X197155664Y-75354107D01*
X197089369Y-75376172D01*
X197065546Y-75374724D01*
X196935374Y-75354107D01*
X196906287Y-75349500D01*
X196693713Y-75349500D01*
X196664626Y-75354107D01*
X196483760Y-75382753D01*
X196281585Y-75448444D01*
X196092179Y-75544951D01*
X195920213Y-75669890D01*
X195769894Y-75820209D01*
X195769890Y-75820214D01*
X195650318Y-75984793D01*
X195594989Y-76027459D01*
X195525375Y-76033438D01*
X195463580Y-76000833D01*
X195449682Y-75984793D01*
X195330109Y-75820214D01*
X195330105Y-75820209D01*
X195179786Y-75669890D01*
X195007820Y-75544951D01*
X194818414Y-75448444D01*
X194818413Y-75448443D01*
X194818412Y-75448443D01*
X194616243Y-75382754D01*
X194616241Y-75382753D01*
X194616240Y-75382753D01*
X194435374Y-75354107D01*
X194406287Y-75349500D01*
X194193713Y-75349500D01*
X194164626Y-75354107D01*
X193983760Y-75382753D01*
X193781585Y-75448444D01*
X193592179Y-75544951D01*
X193420213Y-75669890D01*
X193269890Y-75820213D01*
X193144951Y-75992179D01*
X193048444Y-76181585D01*
X193048443Y-76181587D01*
X193048443Y-76181588D01*
X193023407Y-76258642D01*
X192982753Y-76383760D01*
X192949500Y-76593713D01*
X192949500Y-77306286D01*
X192971631Y-77446019D01*
X192982754Y-77516243D01*
X193048443Y-77718412D01*
X193144811Y-77907546D01*
X193144951Y-77907819D01*
X193245971Y-78046863D01*
X193269451Y-78112669D01*
X193253625Y-78180723D01*
X193233334Y-78207429D01*
X190755282Y-80685481D01*
X190693959Y-80718966D01*
X190624267Y-80713982D01*
X190568334Y-80672110D01*
X190547828Y-80629897D01*
X190524012Y-80541015D01*
X190469638Y-80409744D01*
X190429180Y-80312068D01*
X190429172Y-80312051D01*
X190305270Y-80097448D01*
X190305266Y-80097441D01*
X190154403Y-79900832D01*
X190154401Y-79900830D01*
X190154398Y-79900826D01*
X189979173Y-79725601D01*
X189979166Y-79725595D01*
X189782567Y-79574740D01*
X189782565Y-79574738D01*
X189782559Y-79574734D01*
X189782554Y-79574731D01*
X189782551Y-79574729D01*
X189567948Y-79450827D01*
X189567931Y-79450819D01*
X189338992Y-79355990D01*
X189241030Y-79329741D01*
X189099610Y-79291847D01*
X189099609Y-79291846D01*
X189099606Y-79291846D01*
X188853919Y-79259501D01*
X188853916Y-79259500D01*
X188853910Y-79259500D01*
X188606090Y-79259500D01*
X188606084Y-79259500D01*
X188606080Y-79259501D01*
X188360393Y-79291846D01*
X188121007Y-79355990D01*
X187892068Y-79450819D01*
X187892051Y-79450827D01*
X187677448Y-79574729D01*
X187677432Y-79574740D01*
X187480833Y-79725595D01*
X187480826Y-79725601D01*
X187305601Y-79900826D01*
X187305595Y-79900833D01*
X187154740Y-80097432D01*
X187154729Y-80097448D01*
X187030827Y-80312051D01*
X187030819Y-80312068D01*
X186935990Y-80541007D01*
X186871846Y-80780393D01*
X186839501Y-81026080D01*
X186839500Y-81026096D01*
X186839500Y-81273903D01*
X186839501Y-81273919D01*
X186868258Y-81492355D01*
X186871847Y-81519610D01*
X186914993Y-81680633D01*
X186935990Y-81758992D01*
X187030819Y-81987931D01*
X187030827Y-81987948D01*
X187080221Y-82073500D01*
X187096694Y-82141400D01*
X187073841Y-82207427D01*
X187018920Y-82250618D01*
X186972834Y-82259500D01*
X181426670Y-82259500D01*
X181426654Y-82259499D01*
X181419058Y-82259499D01*
X181260943Y-82259499D01*
X181191786Y-82278030D01*
X181108214Y-82300423D01*
X181108209Y-82300426D01*
X180971290Y-82379475D01*
X180971282Y-82379481D01*
X179765186Y-83585577D01*
X179703863Y-83619062D01*
X179634171Y-83614078D01*
X179612414Y-83603437D01*
X179469334Y-83515186D01*
X179302797Y-83460001D01*
X179302795Y-83460000D01*
X179200010Y-83449500D01*
X177899998Y-83449500D01*
X177899981Y-83449501D01*
X177797203Y-83460000D01*
X177797200Y-83460001D01*
X177630668Y-83515185D01*
X177630663Y-83515187D01*
X177481342Y-83607289D01*
X177357289Y-83731342D01*
X177265187Y-83880663D01*
X177265186Y-83880666D01*
X177210001Y-84047203D01*
X177210001Y-84047204D01*
X177210000Y-84047204D01*
X177199500Y-84149983D01*
X177199500Y-85950001D01*
X177199501Y-85950018D01*
X177210000Y-86052796D01*
X177210001Y-86052799D01*
X177243993Y-86155379D01*
X177265186Y-86219334D01*
X177274997Y-86235240D01*
X177285015Y-86251483D01*
X177303454Y-86318876D01*
X177282530Y-86385539D01*
X177228887Y-86430308D01*
X177179463Y-86440578D01*
X166235872Y-86439535D01*
X166168835Y-86419844D01*
X166123085Y-86367036D01*
X166117953Y-86353853D01*
X166100108Y-86298933D01*
X166055220Y-86160781D01*
X165962287Y-85978390D01*
X165941674Y-85950018D01*
X165841971Y-85812786D01*
X165697213Y-85668028D01*
X165531613Y-85547715D01*
X165531612Y-85547714D01*
X165531610Y-85547713D01*
X165467001Y-85514793D01*
X165349223Y-85454781D01*
X165154534Y-85391522D01*
X164979995Y-85363878D01*
X164952352Y-85359500D01*
X164952351Y-85359500D01*
X162403481Y-85359500D01*
X162396528Y-85359305D01*
X162082311Y-85341659D01*
X162068493Y-85340102D01*
X161761666Y-85287969D01*
X161748110Y-85284875D01*
X161449047Y-85198717D01*
X161435921Y-85194124D01*
X161148388Y-85075024D01*
X161135860Y-85068991D01*
X161123860Y-85062359D01*
X160863457Y-84918439D01*
X160851692Y-84911046D01*
X160597872Y-84730951D01*
X160587004Y-84722285D01*
X160532872Y-84673910D01*
X160354934Y-84514894D01*
X160345103Y-84505063D01*
X160344952Y-84504894D01*
X160137709Y-84272989D01*
X160129050Y-84262129D01*
X159948950Y-84008303D01*
X159941563Y-83996547D01*
X159791004Y-83724132D01*
X159784978Y-83711618D01*
X159665874Y-83424077D01*
X159661282Y-83410952D01*
X159629772Y-83301577D01*
X159575122Y-83111883D01*
X159572030Y-83098333D01*
X159559485Y-83024500D01*
X159519896Y-82791498D01*
X159518341Y-82777697D01*
X159500890Y-82466944D01*
X159500890Y-82453048D01*
X159507887Y-82328456D01*
X160595500Y-82328456D01*
X160595500Y-82571543D01*
X160595501Y-82571559D01*
X160627230Y-82812569D01*
X160690149Y-83047386D01*
X160783175Y-83271972D01*
X160783182Y-83271987D01*
X160904730Y-83482516D01*
X161052722Y-83675380D01*
X161052730Y-83675389D01*
X161224611Y-83847270D01*
X161224619Y-83847277D01*
X161417483Y-83995269D01*
X161628012Y-84116817D01*
X161628027Y-84116824D01*
X161708100Y-84149991D01*
X161852612Y-84209850D01*
X162087429Y-84272769D01*
X162328450Y-84304500D01*
X162328457Y-84304500D01*
X162571543Y-84304500D01*
X162571550Y-84304500D01*
X162812571Y-84272769D01*
X163047388Y-84209850D01*
X163271984Y-84116819D01*
X163482516Y-83995269D01*
X163675380Y-83847278D01*
X163675384Y-83847273D01*
X163675389Y-83847270D01*
X163847270Y-83675389D01*
X163847273Y-83675384D01*
X163847278Y-83675380D01*
X163995269Y-83482516D01*
X164116819Y-83271984D01*
X164209850Y-83047388D01*
X164272769Y-82812571D01*
X164304500Y-82571550D01*
X164304500Y-82328450D01*
X164272769Y-82087429D01*
X164209850Y-81852612D01*
X164138614Y-81680633D01*
X164116824Y-81628027D01*
X164116817Y-81628012D01*
X163995269Y-81417483D01*
X163847277Y-81224619D01*
X163847270Y-81224611D01*
X163675389Y-81052730D01*
X163675380Y-81052722D01*
X163482516Y-80904730D01*
X163271987Y-80783182D01*
X163271972Y-80783175D01*
X163047386Y-80690149D01*
X162812569Y-80627230D01*
X162571559Y-80595501D01*
X162571556Y-80595500D01*
X162571550Y-80595500D01*
X162328450Y-80595500D01*
X162328444Y-80595500D01*
X162328440Y-80595501D01*
X162087430Y-80627230D01*
X161852613Y-80690149D01*
X161628027Y-80783175D01*
X161628012Y-80783182D01*
X161417483Y-80904730D01*
X161224619Y-81052722D01*
X161052722Y-81224619D01*
X160904730Y-81417483D01*
X160783182Y-81628012D01*
X160783175Y-81628027D01*
X160690149Y-81852613D01*
X160627230Y-82087430D01*
X160595501Y-82328440D01*
X160595500Y-82328456D01*
X159507887Y-82328456D01*
X159518341Y-82142300D01*
X159519895Y-82128503D01*
X159572032Y-81821656D01*
X159575121Y-81808120D01*
X159661284Y-81509040D01*
X159665875Y-81495921D01*
X159784981Y-81208374D01*
X159791001Y-81195874D01*
X159941567Y-80923443D01*
X159948944Y-80911704D01*
X160129056Y-80657861D01*
X160137702Y-80647018D01*
X160345113Y-80414925D01*
X160354925Y-80405113D01*
X160587018Y-80197702D01*
X160597861Y-80189056D01*
X160851704Y-80008944D01*
X160863443Y-80001567D01*
X161135874Y-79851001D01*
X161148374Y-79844981D01*
X161435928Y-79725872D01*
X161449040Y-79721284D01*
X161748120Y-79635121D01*
X161761656Y-79632032D01*
X162068503Y-79579895D01*
X162082302Y-79578341D01*
X162356884Y-79562921D01*
X162396529Y-79560695D01*
X162403481Y-79560500D01*
X164952351Y-79560500D01*
X164952352Y-79560500D01*
X165154534Y-79528477D01*
X165349219Y-79465220D01*
X165531610Y-79372287D01*
X165642327Y-79291847D01*
X165697213Y-79251971D01*
X165697215Y-79251968D01*
X165697219Y-79251966D01*
X165841966Y-79107219D01*
X165841968Y-79107215D01*
X165841971Y-79107213D01*
X165949610Y-78959058D01*
X165962287Y-78941610D01*
X166055220Y-78759219D01*
X166087024Y-78661333D01*
X166111444Y-78586181D01*
X166150882Y-78528506D01*
X166215241Y-78501308D01*
X166229375Y-78500500D01*
X176314560Y-78500500D01*
X176314562Y-78500500D01*
X176390989Y-78480021D01*
X176459511Y-78440460D01*
X176515460Y-78384511D01*
X176555021Y-78315989D01*
X176575500Y-78239562D01*
X176575500Y-77783074D01*
X177445500Y-77783074D01*
X177445500Y-77956925D01*
X177472697Y-78128639D01*
X177472697Y-78128642D01*
X177526418Y-78293978D01*
X177589957Y-78418679D01*
X177605347Y-78448884D01*
X177707535Y-78589533D01*
X177830467Y-78712465D01*
X177971116Y-78814653D01*
X178095351Y-78877954D01*
X178126021Y-78893581D01*
X178291358Y-78947302D01*
X178291359Y-78947302D01*
X178291362Y-78947303D01*
X178463074Y-78974500D01*
X178463075Y-78974500D01*
X178636925Y-78974500D01*
X178636926Y-78974500D01*
X178808638Y-78947303D01*
X178808641Y-78947302D01*
X178808642Y-78947302D01*
X178973978Y-78893581D01*
X178973978Y-78893580D01*
X178973981Y-78893580D01*
X179128884Y-78814653D01*
X179269533Y-78712465D01*
X179392465Y-78589533D01*
X179494653Y-78448884D01*
X179573580Y-78293981D01*
X179573581Y-78293978D01*
X179627302Y-78128642D01*
X179627302Y-78128641D01*
X179627303Y-78128638D01*
X179654500Y-77956926D01*
X179654500Y-77783074D01*
X179945500Y-77783074D01*
X179945500Y-77956925D01*
X179972697Y-78128639D01*
X179972697Y-78128642D01*
X180026418Y-78293978D01*
X180089957Y-78418679D01*
X180105347Y-78448884D01*
X180207535Y-78589533D01*
X180330467Y-78712465D01*
X180471116Y-78814653D01*
X180595351Y-78877954D01*
X180626021Y-78893581D01*
X180791358Y-78947302D01*
X180791359Y-78947302D01*
X180791362Y-78947303D01*
X180963074Y-78974500D01*
X180963075Y-78974500D01*
X181136925Y-78974500D01*
X181136926Y-78974500D01*
X181308638Y-78947303D01*
X181308641Y-78947302D01*
X181308642Y-78947302D01*
X181473978Y-78893581D01*
X181473978Y-78893580D01*
X181473981Y-78893580D01*
X181628884Y-78814653D01*
X181769533Y-78712465D01*
X181892465Y-78589533D01*
X181994653Y-78448884D01*
X182073580Y-78293981D01*
X182073581Y-78293978D01*
X182127302Y-78128642D01*
X182127302Y-78128641D01*
X182127303Y-78128638D01*
X182154500Y-77956926D01*
X182154500Y-77783074D01*
X182127303Y-77611362D01*
X182127302Y-77611358D01*
X182127302Y-77611357D01*
X182073581Y-77446021D01*
X182073580Y-77446019D01*
X181994653Y-77291116D01*
X181892465Y-77150467D01*
X181769533Y-77027535D01*
X181628884Y-76925347D01*
X181473978Y-76846418D01*
X181308641Y-76792697D01*
X181179854Y-76772299D01*
X181136926Y-76765500D01*
X180963074Y-76765500D01*
X180905836Y-76774565D01*
X180791360Y-76792697D01*
X180791357Y-76792697D01*
X180626021Y-76846418D01*
X180471115Y-76925347D01*
X180390869Y-76983649D01*
X180330467Y-77027535D01*
X180330465Y-77027537D01*
X180330464Y-77027537D01*
X180207537Y-77150464D01*
X180207537Y-77150465D01*
X180207535Y-77150467D01*
X180204207Y-77155048D01*
X180105347Y-77291115D01*
X180026418Y-77446021D01*
X179972697Y-77611357D01*
X179972697Y-77611360D01*
X179945500Y-77783074D01*
X179654500Y-77783074D01*
X179627303Y-77611362D01*
X179627302Y-77611358D01*
X179627302Y-77611357D01*
X179573581Y-77446021D01*
X179573580Y-77446019D01*
X179494653Y-77291116D01*
X179392465Y-77150467D01*
X179269533Y-77027535D01*
X179128884Y-76925347D01*
X178973978Y-76846418D01*
X178808641Y-76792697D01*
X178679854Y-76772299D01*
X178636926Y-76765500D01*
X178463074Y-76765500D01*
X178405836Y-76774565D01*
X178291360Y-76792697D01*
X178291357Y-76792697D01*
X178126021Y-76846418D01*
X177971115Y-76925347D01*
X177890869Y-76983649D01*
X177830467Y-77027535D01*
X177830465Y-77027537D01*
X177830464Y-77027537D01*
X177707537Y-77150464D01*
X177707537Y-77150465D01*
X177707535Y-77150467D01*
X177704207Y-77155048D01*
X177605347Y-77291115D01*
X177526418Y-77446021D01*
X177472697Y-77611357D01*
X177472697Y-77611360D01*
X177445500Y-77783074D01*
X176575500Y-77783074D01*
X176575500Y-74574500D01*
X176595185Y-74507461D01*
X176601332Y-74502135D01*
X186949500Y-74502135D01*
X186949500Y-77597870D01*
X186949501Y-77597876D01*
X186955908Y-77657483D01*
X187006202Y-77792328D01*
X187006206Y-77792335D01*
X187092452Y-77907544D01*
X187092455Y-77907547D01*
X187207664Y-77993793D01*
X187207671Y-77993797D01*
X187342517Y-78044091D01*
X187342516Y-78044091D01*
X187349444Y-78044835D01*
X187402127Y-78050500D01*
X190497872Y-78050499D01*
X190557483Y-78044091D01*
X190692331Y-77993796D01*
X190807546Y-77907546D01*
X190893796Y-77792331D01*
X190944091Y-77657483D01*
X190950500Y-77597873D01*
X190950499Y-74502128D01*
X190944091Y-74442517D01*
X190935444Y-74419334D01*
X190893797Y-74307671D01*
X190893793Y-74307664D01*
X190807547Y-74192455D01*
X190807544Y-74192452D01*
X190692335Y-74106206D01*
X190692328Y-74106202D01*
X190557482Y-74055908D01*
X190557483Y-74055908D01*
X190497883Y-74049501D01*
X190497881Y-74049500D01*
X190497873Y-74049500D01*
X190497864Y-74049500D01*
X187402129Y-74049500D01*
X187402123Y-74049501D01*
X187342516Y-74055908D01*
X187207671Y-74106202D01*
X187207664Y-74106206D01*
X187092455Y-74192452D01*
X187092452Y-74192455D01*
X187006206Y-74307664D01*
X187006202Y-74307671D01*
X186955908Y-74442517D01*
X186949501Y-74502116D01*
X186949501Y-74502123D01*
X186949500Y-74502135D01*
X176601332Y-74502135D01*
X176647989Y-74461706D01*
X176699500Y-74450500D01*
X182371966Y-74450500D01*
X182371969Y-74450500D01*
X182714250Y-74416789D01*
X183051578Y-74349690D01*
X183380705Y-74249850D01*
X183698462Y-74118231D01*
X184001787Y-73956100D01*
X184287760Y-73765019D01*
X184553627Y-73546828D01*
X184796828Y-73303627D01*
X185015019Y-73037760D01*
X185140488Y-72849983D01*
X204099500Y-72849983D01*
X204099500Y-74150001D01*
X204099501Y-74150018D01*
X204110000Y-74252796D01*
X204110001Y-74252799D01*
X204164343Y-74416789D01*
X204165186Y-74419334D01*
X204216253Y-74502128D01*
X204257289Y-74568657D01*
X204381344Y-74692712D01*
X204536120Y-74788178D01*
X204582845Y-74840126D01*
X204594068Y-74909088D01*
X204566224Y-74973171D01*
X204558706Y-74981398D01*
X204419889Y-75120215D01*
X204294951Y-75292179D01*
X204198444Y-75481585D01*
X204132753Y-75683760D01*
X204123630Y-75741362D01*
X204099500Y-75893713D01*
X204099500Y-76106287D01*
X204132754Y-76316243D01*
X204167760Y-76423981D01*
X204198444Y-76518414D01*
X204294951Y-76707820D01*
X204419890Y-76879786D01*
X204570213Y-77030109D01*
X204742179Y-77155048D01*
X204742181Y-77155049D01*
X204742184Y-77155051D01*
X204931588Y-77251557D01*
X205133757Y-77317246D01*
X205343713Y-77350500D01*
X205343714Y-77350500D01*
X206056286Y-77350500D01*
X206056287Y-77350500D01*
X206266243Y-77317246D01*
X206468412Y-77251557D01*
X206657816Y-77155051D01*
X206764828Y-77077303D01*
X206829786Y-77030109D01*
X206829788Y-77030106D01*
X206829792Y-77030104D01*
X206980104Y-76879792D01*
X206980106Y-76879788D01*
X206980109Y-76879786D01*
X207105048Y-76707820D01*
X207105047Y-76707820D01*
X207105051Y-76707816D01*
X207201557Y-76518412D01*
X207267246Y-76316243D01*
X207300500Y-76106287D01*
X207300500Y-75913074D01*
X211775500Y-75913074D01*
X211775500Y-76086926D01*
X211778567Y-76106287D01*
X211802697Y-76258639D01*
X211802697Y-76258642D01*
X211856418Y-76423978D01*
X211856420Y-76423981D01*
X211935347Y-76578884D01*
X212037535Y-76719533D01*
X212160467Y-76842465D01*
X212301116Y-76944653D01*
X212456019Y-77023580D01*
X212456021Y-77023581D01*
X212621358Y-77077302D01*
X212621359Y-77077302D01*
X212621362Y-77077303D01*
X212793074Y-77104500D01*
X212793075Y-77104500D01*
X212966925Y-77104500D01*
X212966926Y-77104500D01*
X213138638Y-77077303D01*
X213138641Y-77077302D01*
X213138642Y-77077302D01*
X213303978Y-77023581D01*
X213303978Y-77023580D01*
X213303981Y-77023580D01*
X213458884Y-76944653D01*
X213599533Y-76842465D01*
X213722465Y-76719533D01*
X213824653Y-76578884D01*
X213903580Y-76423981D01*
X213938586Y-76316243D01*
X213957302Y-76258642D01*
X213957302Y-76258641D01*
X213957303Y-76258638D01*
X213984500Y-76086926D01*
X213984500Y-75913074D01*
X213957303Y-75741362D01*
X213957302Y-75741358D01*
X213957302Y-75741357D01*
X213903581Y-75576021D01*
X213838577Y-75448444D01*
X213824653Y-75421116D01*
X213722465Y-75280467D01*
X213599533Y-75157535D01*
X213458884Y-75055347D01*
X213415834Y-75033412D01*
X213303978Y-74976418D01*
X213138641Y-74922697D01*
X213009854Y-74902299D01*
X212966926Y-74895500D01*
X212793074Y-74895500D01*
X212735836Y-74904565D01*
X212621360Y-74922697D01*
X212621357Y-74922697D01*
X212456021Y-74976418D01*
X212301115Y-75055347D01*
X212220869Y-75113649D01*
X212160467Y-75157535D01*
X212160465Y-75157537D01*
X212160464Y-75157537D01*
X212037537Y-75280464D01*
X212037537Y-75280465D01*
X212037535Y-75280467D01*
X212008947Y-75319815D01*
X211935347Y-75421115D01*
X211856418Y-75576021D01*
X211802697Y-75741357D01*
X211802697Y-75741360D01*
X211785273Y-75851371D01*
X211775500Y-75913074D01*
X207300500Y-75913074D01*
X207300500Y-75893713D01*
X207267246Y-75683757D01*
X207201557Y-75481588D01*
X207105051Y-75292184D01*
X207105049Y-75292181D01*
X207105048Y-75292179D01*
X206980109Y-75120213D01*
X206841294Y-74981398D01*
X206807809Y-74920075D01*
X206812793Y-74850383D01*
X206854665Y-74794450D01*
X206863879Y-74788178D01*
X206869331Y-74784814D01*
X206869334Y-74784814D01*
X207018656Y-74692712D01*
X207142712Y-74568656D01*
X207234814Y-74419334D01*
X207289999Y-74252797D01*
X207300500Y-74150009D01*
X207300499Y-73413074D01*
X211775500Y-73413074D01*
X211775500Y-73586925D01*
X211802697Y-73758639D01*
X211802697Y-73758642D01*
X211856418Y-73923978D01*
X211877569Y-73965489D01*
X211935347Y-74078884D01*
X212037535Y-74219533D01*
X212160467Y-74342465D01*
X212301116Y-74444653D01*
X212413915Y-74502127D01*
X212456021Y-74523581D01*
X212621358Y-74577302D01*
X212621359Y-74577302D01*
X212621362Y-74577303D01*
X212793074Y-74604500D01*
X212793075Y-74604500D01*
X212966925Y-74604500D01*
X212966926Y-74604500D01*
X213138638Y-74577303D01*
X213138641Y-74577302D01*
X213138642Y-74577302D01*
X213303978Y-74523581D01*
X213303978Y-74523580D01*
X213303981Y-74523580D01*
X213458884Y-74444653D01*
X213599533Y-74342465D01*
X213722465Y-74219533D01*
X213824653Y-74078884D01*
X213903580Y-73923981D01*
X213955230Y-73765019D01*
X213957302Y-73758642D01*
X213957302Y-73758641D01*
X213957303Y-73758638D01*
X213984500Y-73586926D01*
X213984500Y-73413074D01*
X213957303Y-73241362D01*
X213957302Y-73241358D01*
X213957302Y-73241357D01*
X213903581Y-73076021D01*
X213903580Y-73076019D01*
X213824653Y-72921116D01*
X213722465Y-72780467D01*
X213599533Y-72657535D01*
X213458884Y-72555347D01*
X213303978Y-72476418D01*
X213138641Y-72422697D01*
X213009854Y-72402299D01*
X212966926Y-72395500D01*
X212793074Y-72395500D01*
X212735836Y-72404565D01*
X212621360Y-72422697D01*
X212621357Y-72422697D01*
X212456021Y-72476418D01*
X212301115Y-72555347D01*
X212220869Y-72613649D01*
X212160467Y-72657535D01*
X212160465Y-72657537D01*
X212160464Y-72657537D01*
X212037537Y-72780464D01*
X212037537Y-72780465D01*
X212037535Y-72780467D01*
X211993649Y-72840869D01*
X211935347Y-72921115D01*
X211856418Y-73076021D01*
X211802697Y-73241357D01*
X211802697Y-73241360D01*
X211775500Y-73413074D01*
X207300499Y-73413074D01*
X207300499Y-72849992D01*
X207289999Y-72747203D01*
X207234814Y-72580666D01*
X207142712Y-72431344D01*
X207018656Y-72307288D01*
X206869334Y-72215186D01*
X206702797Y-72160001D01*
X206702795Y-72160000D01*
X206600010Y-72149500D01*
X204799998Y-72149500D01*
X204799981Y-72149501D01*
X204697203Y-72160000D01*
X204697200Y-72160001D01*
X204530668Y-72215185D01*
X204530663Y-72215187D01*
X204381342Y-72307289D01*
X204257289Y-72431342D01*
X204165187Y-72580663D01*
X204165186Y-72580666D01*
X204110001Y-72747203D01*
X204110001Y-72747204D01*
X204110000Y-72747204D01*
X204099500Y-72849983D01*
X185140488Y-72849983D01*
X185206100Y-72751787D01*
X185368231Y-72448462D01*
X185499850Y-72130705D01*
X185599690Y-71801578D01*
X185666789Y-71464250D01*
X185700500Y-71121969D01*
X185700500Y-70950000D01*
X185700500Y-70902405D01*
X185700500Y-68306092D01*
X185701097Y-68293938D01*
X185701097Y-68293937D01*
X185712744Y-68175678D01*
X185717483Y-68151856D01*
X185750203Y-68043990D01*
X185759499Y-68021549D01*
X185812632Y-67922144D01*
X185826133Y-67901940D01*
X185897635Y-67814814D01*
X185914814Y-67797635D01*
X186001942Y-67726131D01*
X186022144Y-67712632D01*
X186121549Y-67659499D01*
X186143990Y-67650203D01*
X186251856Y-67617483D01*
X186275682Y-67612744D01*
X186375730Y-67602890D01*
X186393940Y-67601097D01*
X186406093Y-67600500D01*
X188132276Y-67600500D01*
X188132276Y-67600499D01*
X188444840Y-67565282D01*
X188751500Y-67495289D01*
X189048394Y-67391402D01*
X189331789Y-67254926D01*
X189598123Y-67087577D01*
X189844044Y-66891461D01*
X190066461Y-66669044D01*
X190262577Y-66423123D01*
X190429926Y-66156789D01*
X190566402Y-65873394D01*
X190670289Y-65576500D01*
X190740282Y-65269840D01*
X190775500Y-64957273D01*
X190775500Y-64800000D01*
X190775500Y-64752405D01*
X190775500Y-64053480D01*
X190775695Y-64046527D01*
X190781764Y-63938456D01*
X191815500Y-63938456D01*
X191815500Y-64181543D01*
X191815501Y-64181559D01*
X191847230Y-64422569D01*
X191910149Y-64657386D01*
X192003175Y-64881972D01*
X192003182Y-64881987D01*
X192124730Y-65092516D01*
X192272722Y-65285380D01*
X192272730Y-65285389D01*
X192444611Y-65457270D01*
X192444619Y-65457277D01*
X192637483Y-65605269D01*
X192848012Y-65726817D01*
X192848027Y-65726824D01*
X192964171Y-65774932D01*
X193072612Y-65819850D01*
X193307429Y-65882769D01*
X193548450Y-65914500D01*
X193548457Y-65914500D01*
X193791543Y-65914500D01*
X193791550Y-65914500D01*
X194032571Y-65882769D01*
X194267388Y-65819850D01*
X194491984Y-65726819D01*
X194702516Y-65605269D01*
X194895380Y-65457278D01*
X194895384Y-65457273D01*
X194895389Y-65457270D01*
X195067270Y-65285389D01*
X195067273Y-65285384D01*
X195067278Y-65285380D01*
X195215269Y-65092516D01*
X195336819Y-64881984D01*
X195429850Y-64657388D01*
X195492769Y-64422571D01*
X195524500Y-64181550D01*
X195524500Y-63938450D01*
X195492769Y-63697429D01*
X195429850Y-63462612D01*
X195336819Y-63238016D01*
X195252723Y-63092356D01*
X195215269Y-63027483D01*
X195067277Y-62834619D01*
X195067270Y-62834611D01*
X194895389Y-62662730D01*
X194895380Y-62662722D01*
X194702516Y-62514730D01*
X194491987Y-62393182D01*
X194491972Y-62393175D01*
X194267386Y-62300149D01*
X194032569Y-62237230D01*
X193791559Y-62205501D01*
X193791556Y-62205500D01*
X193791550Y-62205500D01*
X193548450Y-62205500D01*
X193548444Y-62205500D01*
X193548440Y-62205501D01*
X193307430Y-62237230D01*
X193072613Y-62300149D01*
X192848027Y-62393175D01*
X192848012Y-62393182D01*
X192637483Y-62514730D01*
X192444619Y-62662722D01*
X192272722Y-62834619D01*
X192124730Y-63027483D01*
X192003182Y-63238012D01*
X192003175Y-63238027D01*
X191910149Y-63462613D01*
X191847230Y-63697430D01*
X191815501Y-63938440D01*
X191815500Y-63938456D01*
X190781764Y-63938456D01*
X190782383Y-63927438D01*
X190782383Y-63927437D01*
X190785157Y-63878031D01*
X190793341Y-63732302D01*
X190794895Y-63718503D01*
X190847032Y-63411656D01*
X190850121Y-63398120D01*
X190936284Y-63099040D01*
X190940875Y-63085921D01*
X191059981Y-62798374D01*
X191066001Y-62785874D01*
X191216567Y-62513443D01*
X191223944Y-62501704D01*
X191404056Y-62247861D01*
X191412702Y-62237018D01*
X191620113Y-62004925D01*
X191629925Y-61995113D01*
X191862018Y-61787702D01*
X191872861Y-61779056D01*
X192126704Y-61598944D01*
X192138443Y-61591567D01*
X192410874Y-61441001D01*
X192423374Y-61434981D01*
X192710928Y-61315872D01*
X192724040Y-61311284D01*
X193023120Y-61225121D01*
X193036656Y-61222032D01*
X193343503Y-61169895D01*
X193357300Y-61168341D01*
X193668055Y-61150890D01*
X193681945Y-61150890D01*
X193992697Y-61168341D01*
G37*
%TD.AperFunction*%
%TD*%
M02*
