%TF.GenerationSoftware,KiCad,Pcbnew,9.0.5*%
%TF.CreationDate,2025-10-15T11:44:02-05:00*%
%TF.ProjectId,PS-LVBatteryPCB,50532d4c-5642-4617-9474-657279504342,rev?*%
%TF.SameCoordinates,Original*%
%TF.FileFunction,Profile,NP*%
%FSLAX46Y46*%
G04 Gerber Fmt 4.6, Leading zero omitted, Abs format (unit mm)*
G04 Created by KiCad (PCBNEW 9.0.5) date 2025-10-15 11:44:02*
%MOMM*%
%LPD*%
G01*
G04 APERTURE LIST*
%TA.AperFunction,Profile*%
%ADD10C,0.050000*%
%TD*%
G04 APERTURE END LIST*
D10*
X201950000Y-70200000D02*
X201950000Y-68300000D01*
X225249999Y-79249999D02*
G75*
G02*
X228450001Y-82449999I1J-3200001D01*
G01*
X185400000Y-70950000D02*
G75*
G02*
X182200000Y-74150000I-3200000J0D01*
G01*
X164850000Y-85660000D02*
G75*
G02*
X165850000Y-86660000I0J-1000000D01*
G01*
X187900000Y-67300000D02*
X187975000Y-67300000D01*
X200950000Y-67300000D02*
G75*
G02*
X201950000Y-68300000I0J-1000000D01*
G01*
X225249999Y-79249999D02*
X224499999Y-79249999D01*
X199375000Y-67300000D02*
G75*
G02*
X196875000Y-64800000I0J2500000D01*
G01*
X163150000Y-79260000D02*
X162400000Y-79260000D01*
X200950000Y-67300000D02*
X199450000Y-67300000D01*
X190475000Y-64050000D02*
X190475000Y-64800000D01*
X221850000Y-86650000D02*
G75*
G02*
X222850000Y-85650000I1000000J0D01*
G01*
X187275305Y-86742040D02*
G75*
G02*
X190475060Y-89942040I-305J-3200060D01*
G01*
X202950000Y-71200000D02*
G75*
G02*
X201950000Y-70200000I0J1000000D01*
G01*
X165850000Y-86740000D02*
X187275305Y-86742040D01*
X202950000Y-71200000D02*
X216650000Y-71200000D01*
X163150000Y-79260000D02*
X164850000Y-79260000D01*
X199450000Y-67300000D02*
X199375000Y-67300000D01*
X200076621Y-86743967D02*
X221850000Y-86755000D01*
X190475000Y-64800000D02*
G75*
G02*
X187975000Y-67300000I-2500000J0D01*
G01*
X162400000Y-85660000D02*
X163150000Y-85660000D01*
X222850000Y-79249999D02*
G75*
G02*
X221850001Y-78249999I0J999999D01*
G01*
X221850000Y-78250000D02*
X221850000Y-78200000D01*
X228449999Y-82449999D02*
G75*
G02*
X225249999Y-85649999I-3199999J-1D01*
G01*
X165850000Y-78200000D02*
X176275000Y-78200000D01*
X216650000Y-78200000D02*
X221850000Y-78200000D01*
X163150000Y-85660000D02*
X164850000Y-85660000D01*
X186400000Y-67300000D02*
X187900000Y-67300000D01*
X224499999Y-79249999D02*
X222850000Y-79249999D01*
X216650000Y-71200000D02*
X216650000Y-78200000D01*
X193675000Y-60850000D02*
G75*
G02*
X196875000Y-64050000I0J-3200000D01*
G01*
X196875000Y-89944000D02*
X196875000Y-89980000D01*
X165850000Y-86740000D02*
X165850000Y-86660000D01*
X162400000Y-85660000D02*
G75*
G02*
X159200000Y-82460000I0J3200000D01*
G01*
X221850000Y-86755000D02*
X221850000Y-86675000D01*
X190475000Y-89980000D02*
X190475000Y-89942040D01*
X176275000Y-78200000D02*
X176275000Y-74150000D01*
X159200000Y-82460000D02*
G75*
G02*
X162400000Y-79260000I3200000J0D01*
G01*
X190475000Y-64050000D02*
G75*
G02*
X193675000Y-60850000I3200000J0D01*
G01*
X222850000Y-85650000D02*
X224499999Y-85649999D01*
X185400000Y-70950000D02*
X185400000Y-68300000D01*
X196875000Y-64800000D02*
X196875000Y-64050000D01*
X196875000Y-89980000D02*
G75*
G02*
X193675000Y-93180000I-3200000J0D01*
G01*
X185400000Y-68300000D02*
G75*
G02*
X186400000Y-67300000I1000000J0D01*
G01*
X165850000Y-78260000D02*
X165850000Y-78200000D01*
X221850000Y-86675000D02*
X221850000Y-86650000D01*
X224499999Y-85649999D02*
X225249999Y-85649999D01*
X196875000Y-89943967D02*
G75*
G02*
X200076621Y-86744000I3200000J-33D01*
G01*
X193675000Y-93180000D02*
G75*
G02*
X190475000Y-89980000I0J3200000D01*
G01*
X165850000Y-78260000D02*
G75*
G02*
X164850000Y-79260000I-1000000J0D01*
G01*
X176275000Y-74150000D02*
X182200000Y-74150000D01*
M02*
